<svg width="128" height="128" viewBox="0 0 128 128" fill="none" xmlns="http://www.w3.org/2000/svg">
<g id="logo">
<g id="EG-Logo">
<g id="Square">
<path id="Vector" fill-rule="evenodd" clip-rule="evenodd" d="M95.4062 4C112.75 4 124 15.25 124 32.5938V95.4062C124 112.75 112.75 124 95.4062 124H32.5938C15.25 124 4 112.75 4 95.4062V32.5938C4 15.25 15.25 4 32.5938 4H95.4062Z" fill="url(#paint0_linear_11:2)" stroke="#264653" stroke-width="4"/>
</g>
<g id="E">
<g id="Group">
<path id="Vector_2" d="M26.0342 42.4107C26.0342 42.2098 26.0414 42.0088 26.0523 41.8079L36.3004 35.0803C36.304 35.0803 36.304 35.0767 36.3076 35.0767L40.3852 32.3977L43.1325 30.5928C43.6777 30.2359 44.3092 30.0328 44.9602 30.0052C45.6113 29.9775 46.2578 30.1262 46.8313 30.4357C47.4048 30.7451 47.884 31.2037 48.2184 31.7631C48.5527 32.3225 48.7298 32.9617 48.7307 33.6134V41.2492C47.2709 40.5336 45.6668 40.161 44.041 40.1597C42.4151 40.1585 40.8105 40.5287 39.3495 41.242C39.2993 41.2673 39.2454 41.2927 39.1952 41.3224C39.1626 41.3405 39.1341 41.3586 39.1015 41.3799L37.2497 42.5952L37.2424 42.6024L31.608 46.3062C31.6043 46.3098 31.5971 46.3134 31.5935 46.317L29.7529 47.5251C29.4205 47.7398 29.1678 48.0576 29.0334 48.4297C28.8989 48.8017 28.8902 49.2076 29.0086 49.5852C29.009 49.5852 29.0094 49.5853 29.0099 49.5855C29.0103 49.5856 29.0107 49.5859 29.011 49.5863C29.0113 49.5866 29.0115 49.587 29.0117 49.5874C29.0118 49.5879 29.0118 49.5884 29.0118 49.5888C29.0547 49.729 29.1152 49.8632 29.1918 49.9883C28.1931 48.9952 27.4 47.8148 26.8583 46.5147C26.3165 45.2146 26.0366 43.8204 26.0346 42.4119L26.0342 42.4107Z" fill="url(#paint1_linear_11:2)" stroke="black" stroke-width="2"/>
<path id="Vector_3" d="M39.3491 41.2414C40.8073 40.5265 42.4103 40.1562 44.0343 40.1591C44.5882 40.1584 45.1414 40.2017 45.6885 40.2885C45.6995 40.2891 45.7104 40.2915 45.7206 40.2957C46.7664 40.4589 47.7812 40.7802 48.7303 41.2486V41.4178C48.7305 41.5475 48.7233 41.6771 48.7086 41.806V41.8205C48.6091 42.8232 48.1404 43.7532 47.3935 44.4296C46.6466 45.1061 45.675 45.4808 44.6673 45.4809H41.9236V42.9028C41.924 42.4566 41.7605 42.0259 41.4642 41.6924C41.1678 41.359 40.7592 41.1461 40.316 41.0943C39.9863 41.0529 39.6516 41.1038 39.3491 41.2414Z" fill="url(#paint2_linear_11:2)" stroke="black" stroke-width="2"/>
<path id="Vector_4" d="M19.6269 46.0236L26.0523 41.8058C26.0414 42.0068 26.0342 42.2077 26.0342 42.4087C26.0362 43.8171 26.3161 45.2114 26.8579 46.5115C27.3997 47.8116 28.1927 48.9919 29.1914 49.985C29.3314 50.22 29.524 50.4194 29.7541 50.5673L30.1744 50.8443C30.6217 51.1928 31.0967 51.5043 31.5947 51.7755C31.6027 51.781 31.6111 51.7859 31.62 51.7899L39.1028 56.7018C39.3775 56.8832 39.6963 56.9866 40.0252 57.0012C40.3541 57.0157 40.6808 56.9407 40.9704 56.7842C41.26 56.6278 41.5018 56.3956 41.67 56.1126C41.8381 55.8296 41.9263 55.5062 41.9252 55.177V52.5989H44.6673C45.7448 52.599 46.7782 53.0271 47.5402 53.7891C48.3021 54.551 48.7302 55.5844 48.7304 56.662V64.4682C48.7324 64.8416 48.6754 65.213 48.5616 65.5686C48.4207 66.0258 48.1855 66.4485 47.8711 66.8092C47.8386 66.8494 47.8064 66.8847 47.7739 66.9241C47.7666 66.9347 47.7583 66.9444 47.7489 66.9531C47.1662 67.5725 46.3832 67.9661 45.5383 68.0641C44.6935 68.1621 43.8412 67.9583 43.1321 67.4888L21.4704 53.2749L19.6261 52.0632C19.1264 51.7337 18.7163 51.2852 18.4326 50.7582C18.1488 50.231 18.0003 49.6418 18.0004 49.0432C18.0005 48.4446 18.1491 47.8554 18.433 47.3284C18.7169 46.8014 19.1271 46.353 19.6269 46.0236Z" fill="url(#paint3_linear_11:2)" stroke="black" stroke-width="2"/>
<path id="Vector_5" d="M30.1728 50.8455L31.5931 51.7767C31.0951 51.5055 30.6201 51.1941 30.1728 50.8455Z" fill="url(#paint4_linear_11:2)" stroke="black" stroke-width="2"/>
<g id="Group_2" style="mix-blend-mode:screen" opacity="0.25">
<g id="Vector_6" style="mix-blend-mode:screen" opacity="0.25">
<path d="M18.7171 49.0477C18.7128 48.5665 18.8303 48.0921 19.0585 47.6684C19.2867 47.2447 19.6182 46.8856 20.0224 46.6243L24.6786 43.568C23.0606 46.3728 22.9887 51.0652 30.3167 58.224L20.0188 51.4643C19.6155 51.204 19.2847 50.846 19.0571 50.4234C18.8295 50.0009 18.7125 49.5277 18.7171 49.0477Z" fill="black"/>
<path d="M18.7171 49.0477C18.7128 48.5665 18.8303 48.0921 19.0585 47.6684C19.2867 47.2447 19.6182 46.8856 20.0224 46.6243L24.6786 43.568C23.0606 46.3728 22.9887 51.0652 30.3167 58.224L20.0188 51.4643C19.6155 51.204 19.2847 50.846 19.0571 50.4234C18.8295 50.0009 18.7125 49.5277 18.7171 49.0477Z" stroke="black" stroke-width="2"/>
</g>
</g>
<g id="Group_3" style="mix-blend-mode:multiply" opacity="0.3">
<g id="Vector_7" style="mix-blend-mode:multiply" opacity="0.3">
<path d="M41.756 55.4805L41.7524 55.5212V55.4887C41.756 55.4842 41.756 55.4842 41.756 55.4805Z" fill="black"/>
<path d="M41.756 55.4805L41.7524 55.5212V55.4887C41.756 55.4842 41.756 55.4842 41.756 55.4805Z" stroke="black" stroke-width="2"/>
</g>
</g>
<g id="Group_4" style="mix-blend-mode:multiply" opacity="0.3">
<g id="Vector_8" style="mix-blend-mode:multiply" opacity="0.3">
<path d="M39.2305 56.5087L39.1944 56.4908L39.2159 56.4981C39.2195 56.5018 39.2269 56.5058 39.2305 56.5087Z" fill="black"/>
<path d="M39.2305 56.5087L39.1944 56.4908L39.2159 56.4981C39.2195 56.5018 39.2269 56.5058 39.2305 56.5087Z" stroke="black" stroke-width="2"/>
</g>
</g>
<g id="Group_5" style="mix-blend-mode:multiply" opacity="0.3">
<g id="Vector_9" style="mix-blend-mode:multiply" opacity="0.3">
<path d="M26.0342 42.4102C26.1061 42.831 26.164 43.2518 26.2536 43.6653C26.3433 44.0789 26.4301 44.492 26.5559 44.8947C26.6636 45.3046 26.8183 45.7005 26.9549 46.0959C27.1097 46.4878 27.264 46.8759 27.4545 47.2501C27.637 47.6267 27.8423 47.9917 28.0694 48.3433C28.2912 48.6949 28.5363 49.0312 28.8032 49.35C28.8715 49.4304 28.9398 49.5047 29.0082 49.5835C29.0086 49.5835 29.0091 49.5836 29.0095 49.5837C29.0099 49.5839 29.0103 49.5842 29.0106 49.5846C29.0109 49.5849 29.0111 49.5853 29.0113 49.5857C29.0114 49.5862 29.0115 49.5866 29.0114 49.5871C29.0543 49.7273 29.1148 49.8615 29.1914 49.9866C29.3314 50.2216 29.524 50.4209 29.7541 50.5689L30.1744 50.8458L31.5947 51.777C31.6027 51.7826 31.6112 51.7874 31.62 51.7915L39.1028 56.7033C39.3775 56.8847 39.6963 56.9882 40.0252 57.0027C40.3541 57.0172 40.6808 56.9423 40.9704 56.7858C41.26 56.6293 41.5018 56.3972 41.67 56.1142C41.8381 55.8311 41.9263 55.5077 41.9252 55.1786V52.6005H44.6673C43.7831 52.6471 42.9054 52.6688 42.0245 52.6977C42.0602 53.6397 42.0747 54.5781 42.0928 55.5201V55.5383L42.0892 55.5596C42.0482 55.7166 41.9928 55.8696 41.9236 56.0165C41.8562 56.1622 41.7744 56.3008 41.6793 56.43C41.5799 56.5624 41.4666 56.6836 41.3413 56.7917C41.2766 56.8424 41.2046 56.889 41.1363 56.9356C41.0646 56.9811 40.9887 57.0195 40.9096 57.0506C40.8328 57.0874 40.7519 57.1153 40.6685 57.1333C40.5878 57.1583 40.5045 57.1741 40.4201 57.1804C40.3379 57.1902 40.255 57.195 40.1722 57.1944L39.9242 57.1804C39.7639 57.1589 39.6054 57.1265 39.4496 57.0831L39.0035 56.9175L38.993 56.9139L38.9713 56.8998C37.5402 55.9864 36.1179 55.0552 34.6961 54.1268L32.5661 52.7202L30.4481 51.3072C30.0888 51.0628 29.7545 50.847 29.3767 50.581C29.0439 50.2909 28.7414 49.9677 28.4741 49.6164C28.2092 49.2728 27.9666 48.9125 27.7478 48.5378C27.5297 48.165 27.3341 47.7796 27.1619 47.3836C26.9819 46.9917 26.8384 46.5886 26.6945 46.1823C26.6583 46.0529 26.6189 45.9199 26.5864 45.7905C26.5036 45.5064 26.4285 45.2278 26.3742 44.9385C26.2737 44.5249 26.2134 44.1006 26.1479 43.6798C26.0824 43.259 26.074 42.8346 26.0342 42.4102Z" fill="black"/>
<path d="M26.0342 42.4102C26.1061 42.831 26.164 43.2518 26.2536 43.6653C26.3433 44.0789 26.4301 44.492 26.5559 44.8947C26.6636 45.3046 26.8183 45.7005 26.9549 46.0959C27.1097 46.4878 27.264 46.8759 27.4545 47.2501C27.637 47.6267 27.8423 47.9917 28.0694 48.3433C28.2912 48.6949 28.5363 49.0312 28.8032 49.35C28.8715 49.4304 28.9398 49.5047 29.0082 49.5835C29.0086 49.5835 29.0091 49.5836 29.0095 49.5837C29.0099 49.5839 29.0103 49.5842 29.0106 49.5846C29.0109 49.5849 29.0111 49.5853 29.0113 49.5857C29.0114 49.5862 29.0115 49.5866 29.0114 49.5871C29.0543 49.7273 29.1148 49.8615 29.1914 49.9866C29.3314 50.2216 29.524 50.4209 29.7541 50.5689L30.1744 50.8458L31.5947 51.777C31.6027 51.7826 31.6112 51.7874 31.62 51.7915L39.1028 56.7033C39.3775 56.8847 39.6963 56.9882 40.0252 57.0027C40.3541 57.0172 40.6808 56.9423 40.9704 56.7858C41.26 56.6293 41.5018 56.3972 41.67 56.1142C41.8381 55.8311 41.9263 55.5077 41.9252 55.1786V52.6005H44.6673C43.7831 52.6471 42.9054 52.6688 42.0245 52.6977C42.0602 53.6397 42.0747 54.5781 42.0928 55.5201V55.5383L42.0892 55.5596C42.0482 55.7166 41.9928 55.8696 41.9236 56.0165C41.8562 56.1622 41.7744 56.3008 41.6793 56.43C41.5799 56.5624 41.4666 56.6836 41.3413 56.7917C41.2766 56.8424 41.2046 56.889 41.1363 56.9356C41.0646 56.9811 40.9887 57.0195 40.9096 57.0506C40.8328 57.0874 40.7519 57.1153 40.6685 57.1333C40.5878 57.1583 40.5045 57.1741 40.4201 57.1804C40.3379 57.1902 40.255 57.195 40.1722 57.1944L39.9242 57.1804C39.7639 57.1589 39.6054 57.1265 39.4496 57.0831L39.0035 56.9175L38.993 56.9139L38.9713 56.8998C37.5402 55.9864 36.1179 55.0552 34.6961 54.1268L32.5661 52.7202L30.4481 51.3072C30.0888 51.0628 29.7545 50.847 29.3767 50.581C29.0439 50.2909 28.7414 49.9677 28.4741 49.6164C28.2092 49.2728 27.9666 48.9125 27.7478 48.5378C27.5297 48.165 27.3341 47.7796 27.1619 47.3836C26.9819 46.9917 26.8384 46.5886 26.6945 46.1823C26.6583 46.0529 26.6189 45.9199 26.5864 45.7905C26.5036 45.5064 26.4285 45.2278 26.3742 44.9385C26.2737 44.5249 26.2134 44.1006 26.1479 43.6798C26.0824 43.259 26.074 42.8346 26.0342 42.4102Z" stroke="black" stroke-width="2"/>
</g>
</g>
<g id="Group_6" style="mix-blend-mode:screen" opacity="0.35">
<g id="Vector_10" style="mix-blend-mode:screen" opacity="0.35">
<path d="M21.4712 53.2761C22.3847 53.8082 23.2797 54.3656 24.1863 54.9121C25.1066 55.4659 26.0093 56.0447 26.9224 56.6129L29.648 58.3282L32.3591 60.072C34.1609 61.2369 35.956 62.4139 37.7444 63.6029L40.4193 65.3973C41.3075 65.9869 42.1848 66.6054 43.0694 67.2058C43.3141 67.3208 43.5585 67.443 43.8032 67.5547L44.1914 67.6841C44.318 67.7327 44.4493 67.7675 44.5833 67.7882L44.9852 67.8565C45.1182 67.8674 45.2512 67.8601 45.3871 67.8673C45.5219 67.8745 45.657 67.8637 45.7889 67.8352C45.9237 67.8246 46.0566 67.7976 46.1848 67.7548C46.3158 67.7192 46.4443 67.6747 46.5694 67.6218C46.69 67.5607 46.8174 67.5064 46.9311 67.4349C47.0448 67.3634 47.161 67.2874 47.2723 67.2046C47.3768 67.111 47.4845 67.025 47.5854 66.9314C47.9847 66.5361 48.3132 66.0751 48.5563 65.5686C48.4596 65.8354 48.3367 66.092 48.1894 66.3346C48.1195 66.4593 48.0415 66.5793 47.9559 66.6939C47.898 66.7742 47.8354 66.8485 47.7686 66.9241C47.7614 66.9346 47.753 66.9444 47.7437 66.9531C47.1609 67.5725 46.378 67.966 45.5331 68.064C44.6883 68.1621 43.836 67.9583 43.1268 67.4888L21.4712 53.2761Z" fill="black"/>
<path d="M21.4712 53.2761C22.3847 53.8082 23.2797 54.3656 24.1863 54.9121C25.1066 55.4659 26.0093 56.0447 26.9224 56.6129L29.648 58.3282L32.3591 60.072C34.1609 61.2369 35.956 62.4139 37.7444 63.6029L40.4193 65.3973C41.3075 65.9869 42.1848 66.6054 43.0694 67.2058C43.3141 67.3208 43.5585 67.443 43.8032 67.5547L44.1914 67.6841C44.318 67.7327 44.4493 67.7675 44.5833 67.7882L44.9852 67.8565C45.1182 67.8674 45.2512 67.8601 45.3871 67.8673C45.5219 67.8745 45.657 67.8637 45.7889 67.8352C45.9237 67.8246 46.0566 67.7976 46.1848 67.7548C46.3158 67.7192 46.4443 67.6747 46.5694 67.6218C46.69 67.5607 46.8174 67.5064 46.9311 67.4349C47.0448 67.3634 47.161 67.2874 47.2723 67.2046C47.3768 67.111 47.4845 67.025 47.5854 66.9314C47.9847 66.5361 48.3132 66.0751 48.5563 65.5686C48.4596 65.8354 48.3367 66.092 48.1894 66.3346C48.1195 66.4593 48.0415 66.5793 47.9559 66.6939C47.898 66.7742 47.8354 66.8485 47.7686 66.9241C47.7614 66.9346 47.753 66.9444 47.7437 66.9531C47.1609 67.5725 46.378 67.966 45.5331 68.064C44.6883 68.1621 43.836 67.9583 43.1268 67.4888L21.4712 53.2761Z" stroke="black" stroke-width="2"/>
</g>
</g>
<g id="Group_7" style="mix-blend-mode:screen" opacity="0.35">
<g id="Vector_11" style="mix-blend-mode:screen" opacity="0.35">
<path d="M42.4702 45.4807C42.4702 45.4807 42.9846 45.3798 43.7562 45.3079C43.9471 45.2866 44.1581 45.2677 44.3783 45.2541C44.5986 45.2404 44.8385 45.2255 45.0579 45.1966C45.1696 45.1821 45.2846 45.1712 45.4031 45.1564C45.5145 45.1238 45.6262 45.0985 45.7411 45.0736L45.9139 45.0334L46.0747 44.9687C46.1864 44.9313 46.2957 44.8869 46.4018 44.8357L46.7113 44.6705C46.8118 44.613 46.9018 44.5375 46.9954 44.4727C47.0868 44.4031 47.1744 44.3287 47.2578 44.2497C47.3451 44.1766 47.4258 44.0959 47.499 44.0086C47.6441 43.845 47.7798 43.6732 47.9053 43.4942C48.017 43.3146 48.1247 43.1454 48.2111 42.9802C48.2975 42.815 48.3763 42.6563 48.4342 42.516C48.4989 42.3725 48.5491 42.2463 48.5885 42.1422C48.6689 41.93 48.7091 41.8043 48.7091 41.8043V41.8187C48.6095 42.8215 48.1408 43.7514 47.3939 44.4279C46.6471 45.1044 45.6754 45.479 44.6677 45.4791L42.4702 45.4807Z" fill="black"/>
<path d="M42.4702 45.4807C42.4702 45.4807 42.9846 45.3798 43.7562 45.3079C43.9471 45.2866 44.1581 45.2677 44.3783 45.2541C44.5986 45.2404 44.8385 45.2255 45.0579 45.1966C45.1696 45.1821 45.2846 45.1712 45.4031 45.1564C45.5145 45.1238 45.6262 45.0985 45.7411 45.0736L45.9139 45.0334L46.0747 44.9687C46.1864 44.9313 46.2957 44.8869 46.4018 44.8357L46.7113 44.6705C46.8118 44.613 46.9018 44.5375 46.9954 44.4727C47.0868 44.4031 47.1744 44.3287 47.2578 44.2497C47.3451 44.1766 47.4258 44.0959 47.499 44.0086C47.6441 43.845 47.7798 43.6732 47.9053 43.4942C48.017 43.3146 48.1247 43.1454 48.2111 42.9802C48.2975 42.815 48.3763 42.6563 48.4342 42.516C48.4989 42.3725 48.5491 42.2463 48.5885 42.1422C48.6689 41.93 48.7091 41.8043 48.7091 41.8043V41.8187C48.6095 42.8215 48.1408 43.7514 47.3939 44.4279C46.6471 45.1044 45.6754 45.479 44.6677 45.4791L42.4702 45.4807Z" stroke="black" stroke-width="2"/>
</g>
</g>
<g id="Group_8" style="mix-blend-mode:multiply" opacity="0.3">
<g id="Vector_12" style="mix-blend-mode:multiply" opacity="0.3">
<path d="M31.6075 46.3042C31.8953 46.0739 32.1903 45.8509 32.4848 45.6318C32.7871 45.4088 33.0857 45.1785 33.3875 44.9595C33.9951 44.5174 34.6064 44.089 35.2213 43.6578C35.8398 43.2334 36.4511 42.8054 37.0768 42.3955C37.6989 41.9747 38.3227 41.5648 38.9536 41.1588L38.9681 41.1516L38.9753 41.148C39.2377 41.0274 39.4929 40.8783 39.7662 40.7775C40.035 40.6638 40.3099 40.5653 40.5897 40.4825C40.867 40.3929 41.1487 40.3174 41.4337 40.2562C41.7174 40.206 42.0015 40.1481 42.2893 40.116C42.577 40.0758 42.868 40.0621 43.1557 40.0476C43.4433 40.0344 43.7312 40.0356 44.0186 40.0512C44.5814 40.0738 45.1404 40.1532 45.6872 40.2884C45.6983 40.289 45.7091 40.2915 45.7194 40.2956C45.4357 40.2671 45.1515 40.2634 44.8674 40.2554C44.5832 40.2474 44.3027 40.2626 44.0186 40.2803C43.7345 40.298 43.458 40.3273 43.1811 40.3607C42.8997 40.4009 42.6236 40.4435 42.3504 40.4973C42.0735 40.5444 41.8074 40.6179 41.5341 40.6842C41.2717 40.7706 40.9984 40.8353 40.7396 40.9362C40.5957 40.9828 40.4555 41.0367 40.3152 41.0941C39.9853 41.0528 39.6504 41.1039 39.3479 41.2416C39.2976 41.267 39.2438 41.2923 39.1935 41.322C39.161 41.3401 39.1325 41.3582 39.0999 41.3795L37.248 42.5948L37.2408 42.602L31.6075 46.3042Z" fill="black"/>
<path d="M31.6075 46.3042C31.8953 46.0739 32.1903 45.8509 32.4848 45.6318C32.7871 45.4088 33.0857 45.1785 33.3875 44.9595C33.9951 44.5174 34.6064 44.089 35.2213 43.6578C35.8398 43.2334 36.4511 42.8054 37.0768 42.3955C37.6989 41.9747 38.3227 41.5648 38.9536 41.1588L38.9681 41.1516L38.9753 41.148C39.2377 41.0274 39.4929 40.8783 39.7662 40.7775C40.035 40.6638 40.3099 40.5653 40.5897 40.4825C40.867 40.3929 41.1487 40.3174 41.4337 40.2562C41.7174 40.206 42.0015 40.1481 42.2893 40.116C42.577 40.0758 42.868 40.0621 43.1557 40.0476C43.4433 40.0344 43.7312 40.0356 44.0186 40.0512C44.5814 40.0738 45.1404 40.1532 45.6872 40.2884C45.6983 40.289 45.7091 40.2915 45.7194 40.2956C45.4357 40.2671 45.1515 40.2634 44.8674 40.2554C44.5832 40.2474 44.3027 40.2626 44.0186 40.2803C43.7345 40.298 43.458 40.3273 43.1811 40.3607C42.8997 40.4009 42.6236 40.4435 42.3504 40.4973C42.0735 40.5444 41.8074 40.6179 41.5341 40.6842C41.2717 40.7706 40.9984 40.8353 40.7396 40.9362C40.5957 40.9828 40.4555 41.0367 40.3152 41.0941C39.9853 41.0528 39.6504 41.1039 39.3479 41.2416C39.2976 41.267 39.2438 41.2923 39.1935 41.322C39.161 41.3401 39.1325 41.3582 39.0999 41.3795L37.248 42.5948L37.2408 42.602L31.6075 46.3042Z" stroke="black" stroke-width="2"/>
</g>
</g>
<g id="Group_9" style="mix-blend-mode:screen" opacity="0.35">
<g id="Vector_13" style="mix-blend-mode:screen" opacity="0.35">
<path d="M36.3066 35.0748L40.3842 32.3958L43.1315 30.5909C43.6767 30.234 44.3082 30.0309 44.9593 30.0033C45.6103 29.9756 46.2568 30.1243 46.8303 30.4338C47.4038 30.7432 47.8831 31.2019 48.2174 31.7612C48.5518 32.3206 48.7288 32.9599 48.7298 33.6115V38.0556C48.7261 38.1637 48.7153 38.2714 48.7081 38.3771C48.6397 37.5179 48.6112 36.6622 48.561 35.8026C48.5248 34.9506 48.4927 34.1054 48.471 33.2534C48.4473 33.138 48.4173 33.0239 48.3809 32.9118C48.3407 32.7913 48.2981 32.6743 48.2515 32.5594C48.16 32.3288 48.0494 32.1063 47.9208 31.8942C47.8561 31.7898 47.7805 31.6933 47.7122 31.592C47.6366 31.4952 47.5514 31.4088 47.4751 31.3151C47.3923 31.2255 47.295 31.1544 47.209 31.0708C47.1173 30.9929 47.0199 30.922 46.9177 30.8586C46.8213 30.7888 46.7175 30.7298 46.6082 30.6826C46.5029 30.6258 46.3921 30.58 46.2775 30.5459L45.9322 30.4414L45.5729 30.3876L45.3929 30.3623L45.206 30.3659L44.8391 30.3623C44.7133 30.3659 44.5911 30.3912 44.4653 30.4057L44.1438 30.4459C42.8669 31.2512 41.5809 32.0375 40.2857 32.8045L39.2971 33.3873C38.9663 33.5814 38.6392 33.7755 38.3048 33.9624C37.6405 34.3341 36.979 34.7151 36.3066 35.0748Z" fill="black"/>
<path d="M36.3066 35.0748L40.3842 32.3958L43.1315 30.5909C43.6767 30.234 44.3082 30.0309 44.9593 30.0033C45.6103 29.9756 46.2568 30.1243 46.8303 30.4338C47.4038 30.7432 47.8831 31.2019 48.2174 31.7612C48.5518 32.3206 48.7288 32.9599 48.7298 33.6115V38.0556C48.7261 38.1637 48.7153 38.2714 48.7081 38.3771C48.6397 37.5179 48.6112 36.6622 48.561 35.8026C48.5248 34.9506 48.4927 34.1054 48.471 33.2534C48.4473 33.138 48.4173 33.0239 48.3809 32.9118C48.3407 32.7913 48.2981 32.6743 48.2515 32.5594C48.16 32.3288 48.0494 32.1063 47.9208 31.8942C47.8561 31.7898 47.7805 31.6933 47.7122 31.592C47.6366 31.4952 47.5514 31.4088 47.4751 31.3151C47.3923 31.2255 47.295 31.1544 47.209 31.0708C47.1173 30.9929 47.0199 30.922 46.9177 30.8586C46.8213 30.7888 46.7175 30.7298 46.6082 30.6826C46.5029 30.6258 46.3921 30.58 46.2775 30.5459L45.9322 30.4414L45.5729 30.3876L45.3929 30.3623L45.206 30.3659L44.8391 30.3623C44.7133 30.3659 44.5911 30.3912 44.4653 30.4057L44.1438 30.4459C42.8669 31.2512 41.5809 32.0375 40.2857 32.8045L39.2971 33.3873C38.9663 33.5814 38.6392 33.7755 38.3048 33.9624C37.6405 34.3341 36.979 34.7151 36.3066 35.0748Z" stroke="black" stroke-width="2"/>
</g>
</g>
</g>
<g id="Group_10">
<path id="Vector_14" d="M26.0338 80.5893C26.0338 80.7902 26.041 80.9912 26.0519 81.1921L36.3 87.9197C36.3036 87.9197 36.3036 87.9233 36.3072 87.9233L40.3848 90.6023L43.1321 92.4072C43.6773 92.7641 44.3088 92.9672 44.9598 92.9948C45.6109 93.0225 46.2574 92.8738 46.8309 92.5643C47.4044 92.2549 47.8836 91.7963 48.218 91.2369C48.5523 90.6775 48.7294 90.0383 48.7303 89.3866V81.7508C47.2705 82.4664 45.6664 82.839 44.0406 82.8403C42.4147 82.8415 40.8101 82.4713 39.3491 81.758C39.2989 81.7327 39.245 81.7073 39.1948 81.6776C39.1622 81.6595 39.1337 81.6414 39.1011 81.6201L37.2493 80.4048L37.242 80.3976L31.6076 76.6938C31.604 76.6902 31.5967 76.6866 31.5931 76.683L29.7525 75.4749C29.4201 75.2602 29.1674 74.9424 29.033 74.5703C28.8985 74.1983 28.8898 73.7924 29.0082 73.4148C29.0086 73.4148 29.009 73.4147 29.0095 73.4145C29.0099 73.4144 29.0103 73.4141 29.0106 73.4137C29.0109 73.4134 29.0111 73.413 29.0113 73.4126C29.0114 73.4121 29.0114 73.4116 29.0114 73.4112C29.0543 73.271 29.1148 73.1368 29.1914 73.0117C28.1927 74.0048 27.3997 75.1852 26.8579 76.4853C26.3161 77.7854 26.0362 79.1796 26.0342 80.5881L26.0338 80.5893Z" fill="url(#paint5_linear_11:2)" stroke="black" stroke-width="2"/>
<path id="Vector_15" d="M39.3487 81.7586C40.8069 82.4735 42.4099 82.8438 44.0339 82.8409C44.5878 82.8416 45.141 82.7983 45.6881 82.7115C45.6991 82.7109 45.71 82.7085 45.7202 82.7043C46.766 82.5411 47.7808 82.2198 48.7299 81.7514V81.5822C48.7301 81.4525 48.7229 81.3229 48.7082 81.194V81.1795C48.6087 80.1768 48.14 79.2468 47.3931 78.5704C46.6462 77.8939 45.6746 77.5192 44.6669 77.5191H41.9232V80.0972C41.9236 80.5434 41.7601 80.9741 41.4638 81.3076C41.1674 81.641 40.7588 81.8539 40.3156 81.9057C39.9859 81.9471 39.6512 81.8962 39.3487 81.7586Z" fill="url(#paint6_linear_11:2)" stroke="black" stroke-width="2"/>
<path id="Vector_16" d="M19.6265 76.9764L26.0519 81.1942C26.041 80.9932 26.0338 80.7923 26.0338 80.5913C26.0358 79.1829 26.3157 77.7886 26.8575 76.4885C27.3992 75.1884 28.1922 74.0081 29.191 73.015C29.331 72.78 29.5236 72.5806 29.7537 72.4327L30.174 72.1557C30.6213 71.8072 31.0963 71.4957 31.5943 71.2245C31.6023 71.219 31.6107 71.2141 31.6196 71.2101L39.1023 66.2982C39.3771 66.1168 39.6959 66.0134 40.0248 65.9988C40.3537 65.9843 40.6804 66.0593 40.97 66.2158C41.2596 66.3722 41.5014 66.6044 41.6696 66.8874C41.8377 67.1704 41.9259 67.4938 41.9248 67.823V70.4011H44.6669C45.7444 70.401 46.7778 69.9729 47.5398 69.2109C48.3017 68.449 48.7298 67.4156 48.7299 66.338V58.5318C48.732 58.1584 48.675 57.787 48.5612 57.4314C48.4202 56.9742 48.185 56.5515 47.8707 56.1908C47.8382 56.1506 47.806 56.1153 47.7735 56.0759C47.7662 56.0653 47.7579 56.0556 47.7485 56.0469C47.1658 55.4275 46.3828 55.0339 45.5379 54.9359C44.6931 54.8379 43.8408 55.0417 43.1317 55.5112L21.47 69.7251L19.6257 70.9368C19.126 71.2663 18.7159 71.7148 18.4321 72.2418C18.1484 72.769 17.9999 73.3582 18 73.9568C18.0001 74.5554 18.1487 75.1446 18.4326 75.6716C18.7165 76.1986 19.1267 76.647 19.6265 76.9764Z" fill="url(#paint7_linear_11:2)" stroke="black" stroke-width="2"/>
<path id="Vector_17" d="M30.1724 72.1545L31.5927 71.2233C31.0947 71.4945 30.6197 71.8059 30.1724 72.1545Z" fill="url(#paint8_linear_11:2)" stroke="black" stroke-width="2"/>
<g id="Group_11" style="mix-blend-mode:screen" opacity="0.25">
<g id="Vector_18" style="mix-blend-mode:screen" opacity="0.25">
<path d="M18.7166 73.9523C18.7124 74.4335 18.8299 74.9079 19.0581 75.3316C19.2863 75.7553 19.6178 76.1144 20.022 76.3757L24.6782 79.432C23.0602 76.6272 22.9883 71.9348 30.3163 64.776L20.0184 71.5357C19.6151 71.796 19.2843 72.154 19.0567 72.5766C18.8291 72.9991 18.7121 73.4723 18.7166 73.9523Z" fill="black"/>
<path d="M18.7166 73.9523C18.7124 74.4335 18.8299 74.9079 19.0581 75.3316C19.2863 75.7553 19.6178 76.1144 20.022 76.3757L24.6782 79.432C23.0602 76.6272 22.9883 71.9348 30.3163 64.776L20.0184 71.5357C19.6151 71.796 19.2843 72.154 19.0567 72.5766C18.8291 72.9991 18.7121 73.4723 18.7166 73.9523Z" stroke="black" stroke-width="2"/>
</g>
</g>
<g id="Group_12" style="mix-blend-mode:multiply" opacity="0.3">
<g id="Vector_19" style="mix-blend-mode:multiply" opacity="0.3">
<path d="M41.7556 67.5195L41.752 67.4788V67.5113C41.7556 67.5158 41.7556 67.5158 41.7556 67.5195Z" fill="black"/>
<path d="M41.7556 67.5195L41.752 67.4788V67.5113C41.7556 67.5158 41.7556 67.5158 41.7556 67.5195Z" stroke="black" stroke-width="2"/>
</g>
</g>
<g id="Group_13" style="mix-blend-mode:multiply" opacity="0.3">
<g id="Vector_20" style="mix-blend-mode:multiply" opacity="0.3">
<path d="M39.2301 66.4913L39.194 66.5092L39.2155 66.5019C39.2191 66.4982 39.2265 66.4942 39.2301 66.4913Z" fill="black"/>
<path d="M39.2301 66.4913L39.194 66.5092L39.2155 66.5019C39.2191 66.4982 39.2265 66.4942 39.2301 66.4913Z" stroke="black" stroke-width="2"/>
</g>
</g>
<g id="Group_14" style="mix-blend-mode:multiply" opacity="0.3">
<g id="Vector_21" style="mix-blend-mode:multiply" opacity="0.3">
<path d="M26.0338 80.5898C26.1057 80.169 26.1636 79.7482 26.2532 79.3347C26.3429 78.9211 26.4297 78.508 26.5555 78.1053C26.6632 77.6954 26.8179 77.2995 26.9545 76.9041C27.1093 76.5122 27.2636 76.1241 27.4541 75.7499C27.6366 75.3733 27.8419 75.0083 28.069 74.6567C28.2908 74.3051 28.5359 73.9688 28.8028 73.65C28.8711 73.5696 28.9394 73.4953 29.0078 73.4165C29.0082 73.4165 29.0087 73.4164 29.0091 73.4163C29.0095 73.4161 29.0099 73.4158 29.0102 73.4154C29.0105 73.4151 29.0107 73.4147 29.0109 73.4143C29.011 73.4138 29.0111 73.4134 29.011 73.4129C29.0539 73.2727 29.1144 73.1385 29.191 73.0134C29.331 72.7784 29.5236 72.5791 29.7537 72.4311L30.174 72.1542L31.5943 71.223C31.6023 71.2174 31.6108 71.2126 31.6196 71.2085L39.1024 66.2967C39.3771 66.1153 39.6959 66.0118 40.0248 65.9973C40.3537 65.9828 40.6804 66.0577 40.97 66.2142C41.2596 66.3707 41.5014 66.6028 41.6696 66.8858C41.8377 67.1689 41.9259 67.4923 41.9248 67.8214V70.3995H44.6669C43.7827 70.3529 42.905 70.3312 42.0241 70.3023C42.0598 69.3603 42.0743 68.4219 42.0924 67.4799V67.4617L42.0888 67.4404C42.0478 67.2834 41.9924 67.1304 41.9232 66.9835C41.8558 66.8378 41.774 66.6992 41.6789 66.57C41.5795 66.4376 41.4662 66.3164 41.3409 66.2083C41.2762 66.1576 41.2042 66.111 41.1359 66.0644C41.0642 66.0189 40.9883 65.9805 40.9092 65.9494C40.8324 65.9126 40.7515 65.8847 40.6681 65.8667C40.5874 65.8417 40.5041 65.8259 40.4197 65.8196C40.3375 65.8098 40.2547 65.805 40.1718 65.8056L39.9238 65.8196C39.7635 65.8411 39.605 65.8735 39.4492 65.9169L39.0031 66.0825L38.9926 66.0861L38.9709 66.1002C37.5398 67.0136 36.1175 67.9448 34.6957 68.8732L32.5657 70.2798L30.4477 71.6928C30.0884 71.9372 29.7541 72.153 29.3763 72.419C29.0435 72.7091 28.741 73.0323 28.4737 73.3836C28.2088 73.7272 27.9662 74.0875 27.7475 74.4622C27.5293 74.835 27.3337 75.2204 27.1615 75.6164C26.9815 76.0083 26.838 76.4114 26.6941 76.8177C26.6579 76.9471 26.6186 77.0801 26.586 77.2095C26.5032 77.4936 26.4281 77.7722 26.3738 78.0615C26.2733 78.4751 26.213 78.8994 26.1475 79.3202C26.082 79.741 26.0736 80.1654 26.0338 80.5898Z" fill="black"/>
<path d="M26.0338 80.5898C26.1057 80.169 26.1636 79.7482 26.2532 79.3347C26.3429 78.9211 26.4297 78.508 26.5555 78.1053C26.6632 77.6954 26.8179 77.2995 26.9545 76.9041C27.1093 76.5122 27.2636 76.1241 27.4541 75.7499C27.6366 75.3733 27.8419 75.0083 28.069 74.6567C28.2908 74.3051 28.5359 73.9688 28.8028 73.65C28.8711 73.5696 28.9394 73.4953 29.0078 73.4165C29.0082 73.4165 29.0087 73.4164 29.0091 73.4163C29.0095 73.4161 29.0099 73.4158 29.0102 73.4154C29.0105 73.4151 29.0107 73.4147 29.0109 73.4143C29.011 73.4138 29.0111 73.4134 29.011 73.4129C29.0539 73.2727 29.1144 73.1385 29.191 73.0134C29.331 72.7784 29.5236 72.5791 29.7537 72.4311L30.174 72.1542L31.5943 71.223C31.6023 71.2174 31.6108 71.2126 31.6196 71.2085L39.1024 66.2967C39.3771 66.1153 39.6959 66.0118 40.0248 65.9973C40.3537 65.9828 40.6804 66.0577 40.97 66.2142C41.2596 66.3707 41.5014 66.6028 41.6696 66.8858C41.8377 67.1689 41.9259 67.4923 41.9248 67.8214V70.3995H44.6669C43.7827 70.3529 42.905 70.3312 42.0241 70.3023C42.0598 69.3603 42.0743 68.4219 42.0924 67.4799V67.4617L42.0888 67.4404C42.0478 67.2834 41.9924 67.1304 41.9232 66.9835C41.8558 66.8378 41.774 66.6992 41.6789 66.57C41.5795 66.4376 41.4662 66.3164 41.3409 66.2083C41.2762 66.1576 41.2042 66.111 41.1359 66.0644C41.0642 66.0189 40.9883 65.9805 40.9092 65.9494C40.8324 65.9126 40.7515 65.8847 40.6681 65.8667C40.5874 65.8417 40.5041 65.8259 40.4197 65.8196C40.3375 65.8098 40.2547 65.805 40.1718 65.8056L39.9238 65.8196C39.7635 65.8411 39.605 65.8735 39.4492 65.9169L39.0031 66.0825L38.9926 66.0861L38.9709 66.1002C37.5398 67.0136 36.1175 67.9448 34.6957 68.8732L32.5657 70.2798L30.4477 71.6928C30.0884 71.9372 29.7541 72.153 29.3763 72.419C29.0435 72.7091 28.741 73.0323 28.4737 73.3836C28.2088 73.7272 27.9662 74.0875 27.7475 74.4622C27.5293 74.835 27.3337 75.2204 27.1615 75.6164C26.9815 76.0083 26.838 76.4114 26.6941 76.8177C26.6579 76.9471 26.6186 77.0801 26.586 77.2095C26.5032 77.4936 26.4281 77.7722 26.3738 78.0615C26.2733 78.4751 26.213 78.8994 26.1475 79.3202C26.082 79.741 26.0736 80.1654 26.0338 80.5898Z" stroke="black" stroke-width="2"/>
</g>
</g>
<g id="Group_15" style="mix-blend-mode:screen" opacity="0.35">
<g id="Vector_22" style="mix-blend-mode:screen" opacity="0.35">
<path d="M21.4708 69.7239C22.3843 69.1918 23.2793 68.6344 24.1859 68.0879C25.1062 67.5341 26.0089 66.9553 26.922 66.3871L29.6476 64.6718L32.3587 62.928C34.1605 61.7631 35.9556 60.5861 37.744 59.3971L40.4189 57.6027C41.3071 57.0131 42.1844 56.3946 43.069 55.7942C43.3137 55.6792 43.5581 55.557 43.8028 55.4453L44.191 55.3159C44.3176 55.2673 44.4489 55.2325 44.5829 55.2118L44.9848 55.1435C45.1178 55.1326 45.2508 55.1399 45.3867 55.1327C45.5215 55.1255 45.6566 55.1363 45.7885 55.1648C45.9233 55.1754 46.0562 55.2024 46.1844 55.2452C46.3154 55.2808 46.4439 55.3253 46.569 55.3782C46.6896 55.4393 46.817 55.4936 46.9307 55.5651C47.0444 55.6366 47.1606 55.7126 47.2719 55.7954C47.3764 55.889 47.4841 55.975 47.585 56.0686C47.9843 56.4639 48.3128 56.9249 48.5559 57.4314C48.4592 57.1646 48.3363 56.908 48.189 56.6654C48.1191 56.5407 48.0411 56.4207 47.9555 56.3061C47.8976 56.2258 47.835 56.1515 47.7682 56.0759C47.761 56.0654 47.7527 56.0556 47.7433 56.0469C47.1605 55.4275 46.3776 55.034 45.5327 54.936C44.6879 54.8379 43.8356 55.0417 43.1264 55.5112L21.4708 69.7239Z" fill="black"/>
<path d="M21.4708 69.7239C22.3843 69.1918 23.2793 68.6344 24.1859 68.0879C25.1062 67.5341 26.0089 66.9553 26.922 66.3871L29.6476 64.6718L32.3587 62.928C34.1605 61.7631 35.9556 60.5861 37.744 59.3971L40.4189 57.6027C41.3071 57.0131 42.1844 56.3946 43.069 55.7942C43.3137 55.6792 43.5581 55.557 43.8028 55.4453L44.191 55.3159C44.3176 55.2673 44.4489 55.2325 44.5829 55.2118L44.9848 55.1435C45.1178 55.1326 45.2508 55.1399 45.3867 55.1327C45.5215 55.1255 45.6566 55.1363 45.7885 55.1648C45.9233 55.1754 46.0562 55.2024 46.1844 55.2452C46.3154 55.2808 46.4439 55.3253 46.569 55.3782C46.6896 55.4393 46.817 55.4936 46.9307 55.5651C47.0444 55.6366 47.1606 55.7126 47.2719 55.7954C47.3764 55.889 47.4841 55.975 47.585 56.0686C47.9843 56.4639 48.3128 56.9249 48.5559 57.4314C48.4592 57.1646 48.3363 56.908 48.189 56.6654C48.1191 56.5407 48.0411 56.4207 47.9555 56.3061C47.8976 56.2258 47.835 56.1515 47.7682 56.0759C47.761 56.0654 47.7527 56.0556 47.7433 56.0469C47.1605 55.4275 46.3776 55.034 45.5327 54.936C44.6879 54.8379 43.8356 55.0417 43.1264 55.5112L21.4708 69.7239Z" stroke="black" stroke-width="2"/>
</g>
</g>
<g id="Group_16" style="mix-blend-mode:screen" opacity="0.35">
<g id="Vector_23" style="mix-blend-mode:screen" opacity="0.35">
<path d="M42.4698 77.5193C42.4698 77.5193 42.9842 77.6202 43.7558 77.6921C43.9467 77.7134 44.1577 77.7323 44.3779 77.7459C44.5982 77.7596 44.8381 77.7745 45.0575 77.8034C45.1692 77.8179 45.2842 77.8288 45.4027 77.8436C45.5141 77.8762 45.6258 77.9015 45.7407 77.9264L45.9135 77.9666L46.0743 78.0313C46.186 78.0687 46.2953 78.1131 46.4014 78.1643L46.7109 78.3295C46.8114 78.387 46.9014 78.4625 46.995 78.5273C47.0864 78.5969 47.174 78.6713 47.2575 78.7503C47.3447 78.8234 47.4254 78.9041 47.4986 78.9914C47.6437 79.155 47.7794 79.3268 47.9049 79.5058C48.0166 79.6854 48.1243 79.8546 48.2107 80.0198C48.2971 80.185 48.3759 80.3437 48.4338 80.484C48.4985 80.6275 48.5487 80.7537 48.5881 80.8578C48.6685 81.07 48.7087 81.1957 48.7087 81.1957V81.1813C48.6092 80.1785 48.1404 79.2486 47.3935 78.5721C46.6467 77.8956 45.675 77.521 44.6673 77.5209L42.4698 77.5193Z" fill="black"/>
<path d="M42.4698 77.5193C42.4698 77.5193 42.9842 77.6202 43.7558 77.6921C43.9467 77.7134 44.1577 77.7323 44.3779 77.7459C44.5982 77.7596 44.8381 77.7745 45.0575 77.8034C45.1692 77.8179 45.2842 77.8288 45.4027 77.8436C45.5141 77.8762 45.6258 77.9015 45.7407 77.9264L45.9135 77.9666L46.0743 78.0313C46.186 78.0687 46.2953 78.1131 46.4014 78.1643L46.7109 78.3295C46.8114 78.387 46.9014 78.4625 46.995 78.5273C47.0864 78.5969 47.174 78.6713 47.2575 78.7503C47.3447 78.8234 47.4254 78.9041 47.4986 78.9914C47.6437 79.155 47.7794 79.3268 47.9049 79.5058C48.0166 79.6854 48.1243 79.8546 48.2107 80.0198C48.2971 80.185 48.3759 80.3437 48.4338 80.484C48.4985 80.6275 48.5487 80.7537 48.5881 80.8578C48.6685 81.07 48.7087 81.1957 48.7087 81.1957V81.1813C48.6092 80.1785 48.1404 79.2486 47.3935 78.5721C46.6467 77.8956 45.675 77.521 44.6673 77.5209L42.4698 77.5193Z" stroke="black" stroke-width="2"/>
</g>
</g>
<g id="Group_17" style="mix-blend-mode:multiply" opacity="0.3">
<g id="Vector_24" style="mix-blend-mode:multiply" opacity="0.3">
<path d="M31.6071 76.6958C31.8949 76.9261 32.1899 77.1491 32.4844 77.3682C32.7867 77.5912 33.0853 77.8215 33.3871 78.0405C33.9947 78.4826 34.606 78.911 35.2209 79.3422C35.8394 79.7666 36.4507 80.1946 37.0764 80.6045C37.6985 81.0253 38.3223 81.4352 38.9532 81.8412L38.9677 81.8484L38.9749 81.852C39.2374 81.9726 39.4926 82.1217 39.7658 82.2225C40.0346 82.3362 40.3095 82.4347 40.5893 82.5175C40.8666 82.6071 41.1483 82.6826 41.4333 82.7438C41.717 82.794 42.0011 82.8519 42.2889 82.884C42.5766 82.9242 42.8676 82.9379 43.1553 82.9524C43.4429 82.9656 43.7308 82.9644 44.0182 82.9488C44.581 82.9262 45.1401 82.8468 45.6868 82.7116C45.6979 82.711 45.7087 82.7085 45.719 82.7044C45.4353 82.7329 45.1511 82.7366 44.867 82.7446C44.5828 82.7526 44.3023 82.7374 44.0182 82.7197C43.7341 82.702 43.4576 82.6727 43.1807 82.6393C42.8993 82.5991 42.6232 82.5565 42.35 82.5027C42.0731 82.4556 41.807 82.3821 41.5337 82.3158C41.2713 82.2294 40.998 82.1647 40.7392 82.0638C40.5953 82.0172 40.4551 81.9633 40.3148 81.9059C39.9849 81.9472 39.65 81.8961 39.3475 81.7584C39.2972 81.733 39.2434 81.7077 39.1931 81.678C39.1606 81.6599 39.1321 81.6418 39.0995 81.6205L37.2476 80.4052L37.2404 80.398L31.6071 76.6958Z" fill="black"/>
<path d="M31.6071 76.6958C31.8949 76.9261 32.1899 77.1491 32.4844 77.3682C32.7867 77.5912 33.0853 77.8215 33.3871 78.0405C33.9947 78.4826 34.606 78.911 35.2209 79.3422C35.8394 79.7666 36.4507 80.1946 37.0764 80.6045C37.6985 81.0253 38.3223 81.4352 38.9532 81.8412L38.9677 81.8484L38.9749 81.852C39.2374 81.9726 39.4926 82.1217 39.7658 82.2225C40.0346 82.3362 40.3095 82.4347 40.5893 82.5175C40.8666 82.6071 41.1483 82.6826 41.4333 82.7438C41.717 82.794 42.0011 82.8519 42.2889 82.884C42.5766 82.9242 42.8676 82.9379 43.1553 82.9524C43.4429 82.9656 43.7308 82.9644 44.0182 82.9488C44.581 82.9262 45.1401 82.8468 45.6868 82.7116C45.6979 82.711 45.7087 82.7085 45.719 82.7044C45.4353 82.7329 45.1511 82.7366 44.867 82.7446C44.5828 82.7526 44.3023 82.7374 44.0182 82.7197C43.7341 82.702 43.4576 82.6727 43.1807 82.6393C42.8993 82.5991 42.6232 82.5565 42.35 82.5027C42.0731 82.4556 41.807 82.3821 41.5337 82.3158C41.2713 82.2294 40.998 82.1647 40.7392 82.0638C40.5953 82.0172 40.4551 81.9633 40.3148 81.9059C39.9849 81.9472 39.65 81.8961 39.3475 81.7584C39.2972 81.733 39.2434 81.7077 39.1931 81.678C39.1606 81.6599 39.1321 81.6418 39.0995 81.6205L37.2476 80.4052L37.2404 80.398L31.6071 76.6958Z" stroke="black" stroke-width="2"/>
</g>
</g>
<g id="Group_18" style="mix-blend-mode:screen" opacity="0.35">
<g id="Vector_25" style="mix-blend-mode:screen" opacity="0.35">
<path d="M36.3062 87.9252L40.3838 90.6042L43.1311 92.4091C43.6763 92.766 44.3078 92.9691 44.9589 92.9967C45.6099 93.0244 46.2564 92.8757 46.8299 92.5662C47.4034 92.2568 47.8827 91.7981 48.217 91.2388C48.5514 90.6794 48.7284 90.0401 48.7294 89.3885V84.9444C48.7258 84.8363 48.7149 84.7286 48.7077 84.6229C48.6393 85.4821 48.6108 86.3378 48.5606 87.1974C48.5244 88.0494 48.4923 88.8946 48.4706 89.7466C48.4469 89.862 48.4169 89.9761 48.3805 90.0882C48.3403 90.2087 48.2977 90.3257 48.2511 90.4406C48.1597 90.6712 48.049 90.8937 47.9204 91.1058C47.8557 91.2102 47.7801 91.3067 47.7118 91.408C47.6362 91.5048 47.551 91.5912 47.4747 91.6849C47.3919 91.7745 47.2946 91.8456 47.2086 91.9292C47.1169 92.0071 47.0195 92.078 46.9173 92.1414C46.8209 92.2112 46.7171 92.2702 46.6078 92.3174C46.5025 92.3742 46.3917 92.42 46.2771 92.4541L45.9318 92.5586L45.5725 92.6124L45.3925 92.6377L45.2056 92.6341L44.8387 92.6377C44.7129 92.6341 44.5907 92.6088 44.4649 92.5943L44.1434 92.5541C42.8665 91.7488 41.5805 90.9625 40.2853 90.1955L39.2967 89.6127C38.9659 89.4186 38.6388 89.2245 38.3044 89.0376C37.6401 88.6659 36.9786 88.2849 36.3062 87.9252Z" fill="black"/>
<path d="M36.3062 87.9252L40.3838 90.6042L43.1311 92.4091C43.6763 92.766 44.3078 92.9691 44.9589 92.9967C45.6099 93.0244 46.2564 92.8757 46.8299 92.5662C47.4034 92.2568 47.8827 91.7981 48.217 91.2388C48.5514 90.6794 48.7284 90.0401 48.7294 89.3885V84.9444C48.7258 84.8363 48.7149 84.7286 48.7077 84.6229C48.6393 85.4821 48.6108 86.3378 48.5606 87.1974C48.5244 88.0494 48.4923 88.8946 48.4706 89.7466C48.4469 89.862 48.4169 89.9761 48.3805 90.0882C48.3403 90.2087 48.2977 90.3257 48.2511 90.4406C48.1597 90.6712 48.049 90.8937 47.9204 91.1058C47.8557 91.2102 47.7801 91.3067 47.7118 91.408C47.6362 91.5048 47.551 91.5912 47.4747 91.6849C47.3919 91.7745 47.2946 91.8456 47.2086 91.9292C47.1169 92.0071 47.0195 92.078 46.9173 92.1414C46.8209 92.2112 46.7171 92.2702 46.6078 92.3174C46.5025 92.3742 46.3917 92.42 46.2771 92.4541L45.9318 92.5586L45.5725 92.6124L45.3925 92.6377L45.2056 92.6341L44.8387 92.6377C44.7129 92.6341 44.5907 92.6088 44.4649 92.5943L44.1434 92.5541C42.8665 91.7488 41.5805 90.9625 40.2853 90.1955L39.2967 89.6127C38.9659 89.4186 38.6388 89.2245 38.3044 89.0376C37.6401 88.6659 36.9786 88.2849 36.3062 87.9252Z" stroke="black" stroke-width="2"/>
</g>
</g>
</g>
</g>
<g id="G">
<g id="Group_19">
<path id="Vector_26" d="M98.104 65.3083C98.4765 64.2767 98.7904 63.2247 99.044 62.1575C99.1264 61.8328 99.2049 61.4969 99.269 61.155C99.2887 61.0636 99.3061 60.9743 99.3214 60.8956L99.3223 60.8913C99.3393 60.8038 99.354 60.7287 99.37 60.6551L99.3717 60.6471L99.3734 60.6391C99.4286 60.3637 99.4759 60.0882 99.5156 59.805C99.5986 59.3197 99.6672 58.8239 99.7146 58.3247H107.991V63.4919V63.4937C107.995 65.4932 107.749 67.4852 107.261 69.424L107.26 69.425C106.158 73.8167 103.863 77.8183 100.63 80.9876C97.3957 84.157 93.3489 86.3708 88.9358 87.3846L88.8289 87.4091L88.8201 87.4133C85.5883 88.1343 82.2434 88.1914 78.9884 87.5809C76.7783 87.1664 74.6412 86.4499 72.6358 85.4558C72.752 85.443 72.8701 85.4291 72.9884 85.4131C73.3922 85.3664 73.7996 85.3048 74.1941 85.2369C74.564 85.1812 74.9303 85.1112 75.2758 85.0445L75.2831 85.0431L75.2904 85.0416C75.6069 84.9756 75.9339 84.906 76.2721 84.82C76.4544 84.7799 76.6399 84.7336 76.8129 84.6878C77.3157 84.5611 77.8162 84.4184 78.3074 84.2643C78.5454 84.1907 78.7962 84.1129 79.0495 84.026C79.7444 83.7943 80.4288 83.5324 81.1016 83.2493C81.4403 83.112 81.7683 82.9597 82.0707 82.8193L82.111 82.8006L82.1113 82.8004C82.8965 82.4357 83.6646 82.0364 84.4076 81.6156C84.7037 81.4522 84.9926 81.2804 85.2741 81.1003C85.2798 81.0969 85.2857 81.0933 85.2919 81.0895C85.2997 81.0847 85.3077 81.0795 85.316 81.074C85.6033 80.9005 85.8768 80.7246 86.1551 80.5358C86.5151 80.2965 86.8794 80.0488 87.2397 79.7824C87.9166 79.2938 88.5631 78.778 89.1939 78.2248C89.4911 77.9771 89.7699 77.7254 90.0475 77.4667C90.0927 77.4304 90.1347 77.3906 90.1733 77.3478C90.4704 77.0783 90.7569 76.7952 91.0266 76.5215C91.6145 75.9334 92.1694 75.3232 92.6999 74.6934L92.7033 74.6894C93.2292 74.0585 93.7362 73.4088 94.2154 72.734C94.2209 72.7272 94.2266 72.7199 94.2324 72.7122L94.2335 72.7109C94.2367 72.7066 94.2411 72.7009 94.2463 72.6938C94.9243 71.9082 95.513 71.0498 96.0019 70.1345L96.7875 68.6634H96.6694C96.9089 68.1838 97.1357 67.6978 97.3495 67.206L97.3505 67.2037C97.3653 67.1692 97.3804 67.1344 97.3956 67.0993C97.4842 66.8944 97.5771 66.6795 97.6643 66.4649L97.6661 66.4604C97.8201 66.0764 97.9661 65.6924 98.104 65.3083ZM98.104 65.3083C98.1041 65.3082 98.1041 65.308 98.1042 65.3078L97.163 64.9699L98.1036 65.3095C98.1037 65.3091 98.1039 65.3087 98.104 65.3083ZM88.9432 87.3847C88.9444 87.3844 88.9444 87.3844 88.9426 87.3848L88.9401 87.3853C88.9414 87.385 88.9425 87.3848 88.9432 87.3847Z" fill="url(#paint9_linear_11:2)" stroke="black" stroke-width="2"/>
<path id="Vector_27" d="M86.2857 58.3246L86.2857 58.3246H86.2965H97.7071C97.2791 61.9469 96.1612 65.4554 94.4123 68.6597H86.2965V68.6597L86.2858 68.6598C85.6024 68.6671 84.9244 68.539 84.2911 68.2826L84.291 68.2826C83.6576 68.0262 83.0813 67.6467 82.5955 67.1661C82.1097 66.6856 81.724 66.1134 81.4608 65.4828C81.1976 64.8521 81.062 64.1755 81.062 63.4922C81.062 62.8088 81.1976 62.1322 81.4608 61.5016C81.724 60.871 82.1097 60.2988 82.5955 59.8183L81.9205 59.136L82.5955 59.8183C83.0813 59.3376 83.6576 58.9581 84.291 58.7018L84.2911 58.7018C84.9244 58.4454 85.6025 58.3172 86.2857 58.3246Z" fill="url(#paint10_linear_11:2)" stroke="black" stroke-width="2"/>
<path id="Vector_28" d="M83.4915 77.6558H83.4911C82.5531 77.6552 81.6173 77.5642 80.6967 77.3839L80.6877 77.3821L80.6877 77.3821C79.7733 77.1942 78.8794 76.9178 78.0185 76.5565L78.0168 76.5558C75.506 75.4967 73.3529 73.739 71.8128 71.4925C71.8053 71.4835 71.7981 71.4745 71.7912 71.4655C71.4765 71.1265 71.1688 70.7744 70.8729 70.4141L70.6855 70.186L70.6849 70.1802C67.8522 66.6924 65.8931 62.577 64.9728 58.1762C64.2507 54.7238 64.1847 51.1761 64.7681 47.7165C61.5258 51.5578 59.5264 56.33 59.0902 61.3947C58.5531 67.633 60.4287 73.8398 64.3308 78.7366L83.4915 77.6558ZM83.4915 77.6558C84.8286 77.656 86.1553 77.4665 87.4328 77.0958M83.4915 77.6558L87.4328 77.0958M87.4328 77.0958C86.9855 77.4652 86.5269 77.8216 86.0575 78.1644C81.2627 81.6572 75.5027 83.5713 69.5762 83.646C67.5999 82.2723 65.833 80.6187 64.3309 78.7367L87.4328 77.0958Z" fill="url(#paint11_linear_11:2)" stroke="black" stroke-width="2"/>
<path id="Vector_29" d="M96.0301 49.3265H86.7241C86.763 49.302 86.8018 49.2772 86.8404 49.2522C87.1572 49.0631 87.4655 48.8677 87.7696 48.6676C87.8195 48.6373 87.868 48.6046 87.9149 48.5696C88.2075 48.3836 88.4871 48.1865 88.7468 47.9987C88.8182 47.9493 88.8931 47.8953 88.9627 47.8445C89.1828 47.6878 89.4001 47.5245 89.6054 47.3702L89.6127 47.3647L89.6199 47.3591C89.648 47.3371 89.683 47.3103 89.7222 47.2803C89.8183 47.2069 89.9393 47.1144 90.0437 47.0279C90.0658 47.0105 90.0882 46.993 90.1108 46.9752C90.255 46.8621 90.4089 46.7414 90.5564 46.6204L90.557 46.6199C90.7734 46.4421 90.9899 46.2583 91.1949 46.0842C91.2378 46.0477 91.2802 46.0117 91.322 45.9763L91.3348 45.9655L91.3472 45.9541C91.4026 45.9039 91.4589 45.8529 91.516 45.8013C91.7452 45.594 91.9858 45.3763 92.2195 45.1547C92.4956 44.9026 92.7632 44.6432 93.0296 44.3688L93.0416 44.3581C93.05 44.3507 93.0636 44.3386 93.0781 44.3253C93.0928 44.3119 93.1123 44.2937 93.1336 44.2724L93.1405 44.2654L93.1474 44.2583C93.325 44.0736 93.5086 43.8819 93.6865 43.6892C94.6382 42.6871 95.5237 41.6241 96.3375 40.5069L96.3386 40.5054C96.6525 40.0726 96.9697 39.6209 97.2693 39.1484C97.3038 39.0998 97.338 39.0499 97.3715 39H107.321C107.122 41.2479 106.255 43.3938 104.82 45.1552C103.174 47.1759 100.881 48.5668 98.3278 49.093C97.5717 49.2477 96.8019 49.3259 96.0301 49.3265Z" fill="url(#paint12_linear_11:2)" stroke="black" stroke-width="2"/>
<path id="Vector_30" d="M69.3273 63.5016C69.3269 63.8576 69.3399 64.2127 69.3663 64.566M69.3273 63.5016C69.3273 63.5014 69.3273 63.5012 69.3273 63.501L69.3663 64.566M69.3273 63.5016V63.4951C69.3273 61.6372 69.6938 59.7974 70.4058 58.0813C71.1177 56.3655 72.1611 54.8069 73.4761 53.4949M69.3273 63.5016L73.4761 53.4949M69.3663 64.566C69.119 64.098 68.889 63.6278 68.6803 63.1505L68.6737 63.1353L68.6666 63.1205C68.5466 62.869 68.4352 62.6182 68.3309 62.3621C67.9525 61.429 67.626 60.4756 67.3529 59.5064L67.3529 59.5063L67.35 59.4962C67.3 59.3257 67.2529 59.1558 67.2126 58.9897L67.2101 58.9793L67.2074 58.9689C67.0501 58.3759 66.9147 57.7692 66.8085 57.1654L66.8085 57.1654L66.8078 57.1613C66.7782 56.9974 66.7518 56.8426 66.7325 56.7006L66.7164 56.5822L66.7055 56.5542L66.7046 56.5488C66.6723 56.3586 66.6452 56.16 66.6164 55.9489L66.613 55.9246L66.6131 55.9246L66.6112 55.912C66.5626 55.5869 66.5275 55.2658 66.4993 54.9318L66.4972 54.907L66.4939 54.8823C66.4844 54.8117 66.4793 54.7394 66.4713 54.6254L66.4702 54.6095L66.4702 54.6095L66.4694 54.5993C66.4467 54.3184 66.4269 54.0703 66.4205 53.826L66.4199 53.8011L66.418 53.7764C66.4101 53.6723 66.4058 53.6017 66.4058 53.5392V53.4739L66.3973 53.4092C66.3959 53.3983 66.3955 53.3871 66.3963 53.3754L66.4005 53.3136L66.397 53.2518C66.389 53.1081 66.3835 53.0019 66.3835 52.8897V52.8644L66.3822 52.8391C66.3758 52.7128 66.3756 52.5748 66.3756 52.405C66.3756 51.7769 66.3978 51.1512 66.4408 50.5324L66.4413 50.5246L66.4417 50.5167C66.4443 50.4683 66.4485 50.4184 66.4542 50.3528L66.4551 50.3419C66.46 50.286 66.466 50.216 66.4704 50.144C66.489 49.9087 66.5098 49.6819 66.5372 49.4584L66.5372 49.4584L66.5383 49.4487L66.5449 49.3904C66.5725 49.1442 66.5982 48.916 66.6296 48.6948C66.6488 48.5833 66.6658 48.4734 66.6814 48.3726L66.682 48.3688C66.699 48.2594 66.7143 48.1604 66.7313 48.0627L66.7313 48.0627L66.7324 48.0558C66.7969 47.6674 66.8682 47.2911 66.9523 46.918L66.9524 46.918L66.9541 46.9099L66.9555 46.9036C67.0145 46.6313 67.0695 46.3777 67.1306 46.1341C67.1307 46.1337 67.1308 46.1333 67.1309 46.1328C67.1391 46.1036 67.1598 46.03 67.1762 45.9505C67.2368 45.7207 67.2948 45.5021 67.3556 45.2905L67.3833 45.257L67.4257 45.0522L67.4321 45.0309V45.0217L67.4335 45.0147C67.4341 45.0119 67.4347 45.009 67.4353 45.0062C67.5757 44.8853 67.7197 44.766 67.8655 44.6483L67.8656 44.6484L67.8763 44.6395C72.2647 40.9965 77.7883 39.0019 83.4916 39.0006C83.4917 39.0006 83.4918 39.0006 83.4919 39.0006H94.9664C94.8863 39.1125 94.8051 39.2238 94.7228 39.3345L94.7228 39.3345L94.7171 39.3423C93.9531 40.3911 93.1216 41.3891 92.2278 42.3298L92.2214 42.3366L92.2151 42.3435C92.067 42.5054 91.91 42.6686 91.7431 42.8421L91.7181 42.8681L91.7102 42.8752C91.7035 42.8812 91.6906 42.8926 91.6778 42.9042C91.6646 42.9162 91.6467 42.9326 91.6271 42.9518L91.6175 42.9612L91.6081 42.9709C91.3609 43.2255 91.1141 43.4649 90.8597 43.6975L90.8514 43.705L90.8433 43.7128C90.6386 43.9086 90.4294 44.0975 90.2091 44.2964C90.1452 44.354 90.0804 44.4126 90.0145 44.4723C89.9052 44.5638 89.8051 44.6488 89.7078 44.7315C89.567 44.851 89.4321 44.9656 89.2837 45.0875L89.2741 45.0954L89.2647 45.1035C89.1248 45.2244 88.9737 45.3429 88.8168 45.4589L88.7933 45.4763L88.7708 45.4951C88.6925 45.5604 88.6195 45.6161 88.5311 45.6836C88.4895 45.7153 88.4446 45.7496 88.3941 45.7888C88.1859 45.9452 87.9899 46.0924 87.7951 46.231C87.7386 46.2711 87.7068 46.2944 87.683 46.312C87.6569 46.3312 87.6403 46.3434 87.6111 46.3629L87.5936 46.3746L87.5766 46.387C87.318 46.5755 87.0584 46.7519 86.7954 46.9217L86.752 46.9498L86.7196 46.9758L86.7055 46.9841L86.6835 46.9986C86.3874 47.1937 86.0941 47.3795 85.7972 47.5563L85.7887 47.5613L85.7804 47.5665C85.5111 47.7341 85.2585 47.8862 84.9962 48.0285L84.9619 48.0471L84.9291 48.0684C84.8664 48.109 84.7922 48.1495 84.6754 48.2116L84.6685 48.2153L84.6616 48.2191C84.6407 48.2306 84.62 48.2421 84.5994 48.2535C84.3487 48.392 84.1209 48.5179 83.8943 48.6306L83.8943 48.6305L83.8837 48.636C83.8617 48.6472 83.843 48.6575 83.8292 48.6652L83.812 48.675L83.8101 48.6761L83.8095 48.6764L83.7918 48.6857C83.5154 48.8312 83.2311 48.9704 82.9311 49.117C82.8936 49.1313 82.8621 49.1459 82.8373 49.1583C82.817 49.1684 82.8005 49.1775 82.7897 49.1836C82.6545 49.2529 82.5171 49.3171 82.3683 49.3847C79.012 49.6541 75.8589 51.1102 73.4761 53.4949M69.3663 64.566L73.4761 53.4949M96.8304 38.0157L96.8272 38.0139L96.8304 38.0157Z" fill="url(#paint13_linear_11:2)" stroke="black" stroke-width="2"/>
<g id="Group_20" style="mix-blend-mode:multiply" opacity="0.1">
<g id="Vector_31" style="mix-blend-mode:multiply" opacity="0.1">
<path d="M83.4912 77.6558H83.4916C84.8263 77.6561 86.1507 77.4673 87.4261 77.0978C86.981 77.465 86.5248 77.8193 86.0578 78.16C81.2629 81.6529 75.5029 83.5671 69.5762 83.6418C68.1788 82.6704 66.886 81.5591 65.7175 80.3261C71.8492 80.136 76.8727 79.0556 80.9905 77.4384C81.8161 77.5826 82.6527 77.6554 83.4912 77.6558Z" fill="black"/>
<path d="M83.4912 77.6558H83.4916C84.8263 77.6561 86.1507 77.4673 87.4261 77.0978C86.981 77.465 86.5248 77.8193 86.0578 78.16C81.2629 81.6529 75.5029 83.5671 69.5762 83.6418C68.1788 82.6704 66.886 81.5591 65.7175 80.3261C71.8492 80.136 76.8727 79.0556 80.9905 77.4384C81.8161 77.5826 82.6527 77.6554 83.4912 77.6558Z" stroke="black" stroke-width="2"/>
</g>
</g>
<g id="Group_21" style="mix-blend-mode:multiply" opacity="0.16">
<g id="Vector_32" style="mix-blend-mode:multiply" opacity="0.16">
<path d="M93.2208 68.6601C94.615 66.9393 95.7939 65.06 96.7349 63.0646C96.1628 65.0019 95.3855 66.878 94.4131 68.6601H93.2208Z" fill="black"/>
<path d="M93.2208 68.6601C94.615 66.9393 95.7939 65.06 96.7349 63.0646C96.1628 65.0019 95.3855 66.878 94.4131 68.6601H93.2208Z" stroke="black" stroke-width="2"/>
</g>
</g>
<g id="Group_22" style="mix-blend-mode:multiply" opacity="0.1">
<g id="Vector_33" style="mix-blend-mode:multiply" opacity="0.1">
<path d="M67.8807 44.6383C69.1104 43.6137 70.4371 42.7153 71.8406 41.9552C67.9289 50.7952 68.1087 58.281 69.3305 63.6104C69.3326 63.93 69.3456 64.2487 69.3692 64.566C69.1219 64.098 68.892 63.6278 68.6832 63.1505L68.6766 63.1353L68.6695 63.1205C68.5495 62.869 68.4382 62.6182 68.3339 62.3621C67.9555 61.4289 67.6289 60.4755 67.3558 59.5064L67.3559 59.5063L67.3529 59.4962C67.3029 59.3257 67.2558 59.1558 67.2156 58.9897L67.2131 58.9793L67.2103 58.9689C67.0531 58.3759 66.9177 57.7692 66.8114 57.1654L66.8115 57.1654L66.8107 57.1613C66.7812 56.9974 66.7548 56.8426 66.7355 56.7006L66.7194 56.5822L66.7084 56.5542L66.7075 56.5488C66.6753 56.3586 66.6482 56.16 66.6193 55.9489L66.616 55.9246L66.6161 55.9246L66.6142 55.912C66.5656 55.5869 66.5304 55.2658 66.5023 54.9318L66.5002 54.907L66.4969 54.8823C66.4874 54.8117 66.4823 54.7394 66.4742 54.6254L66.4731 54.6095L66.4732 54.6095L66.4724 54.5993C66.4497 54.3184 66.4298 54.0703 66.4235 53.826L66.4228 53.8011L66.421 53.7764C66.4131 53.6723 66.4087 53.6017 66.4087 53.5392V53.4744L66.4004 53.4101C66.3988 53.398 66.3985 53.3864 66.3992 53.3754L66.4034 53.3136L66.4 53.2518C66.3919 53.1081 66.3864 53.0019 66.3864 52.8897V52.8644L66.3851 52.8391C66.3787 52.7128 66.3785 52.5748 66.3785 52.405C66.3785 51.7769 66.4007 51.1512 66.4437 50.5324L66.4443 50.5246L66.4447 50.5167C66.4473 50.4683 66.4514 50.4184 66.4571 50.3528L66.4581 50.3419C66.4629 50.286 66.469 50.216 66.4733 50.144C66.492 49.9087 66.5127 49.6819 66.5401 49.4584L66.5402 49.4584L66.5412 49.4487L66.5478 49.3903C66.5755 49.1442 66.6012 48.916 66.6325 48.6948C66.6517 48.5833 66.6687 48.4734 66.6844 48.3726L66.685 48.3688C66.7019 48.2594 66.7173 48.1604 66.7342 48.0627L66.7342 48.0627L66.7354 48.0558C66.7999 47.6674 66.8712 47.2911 66.9553 46.918L66.9553 46.918L66.9571 46.9099L66.9584 46.9036C67.0175 46.6313 67.0724 46.3777 67.1335 46.1341C67.1336 46.1337 67.1338 46.1333 67.1339 46.1328C67.1421 46.1036 67.1628 46.03 67.1791 45.9505C67.2398 45.7207 67.2977 45.5021 67.3585 45.2905L67.3862 45.257L67.4287 45.0522L67.435 45.0309V45.0217L67.4365 45.0147C67.4371 45.0119 67.4377 45.009 67.4383 45.0062C67.5787 44.8853 67.7227 44.766 67.8685 44.6483L67.8746 44.6434L67.8807 44.6383Z" fill="black"/>
<path d="M67.8807 44.6383C69.1104 43.6137 70.4371 42.7153 71.8406 41.9552C67.9289 50.7952 68.1087 58.281 69.3305 63.6104C69.3326 63.93 69.3456 64.2487 69.3692 64.566C69.1219 64.098 68.892 63.6278 68.6832 63.1505L68.6766 63.1353L68.6695 63.1205C68.5495 62.869 68.4382 62.6182 68.3339 62.3621C67.9555 61.4289 67.6289 60.4755 67.3558 59.5064L67.3559 59.5063L67.3529 59.4962C67.3029 59.3257 67.2558 59.1558 67.2156 58.9897L67.2131 58.9793L67.2103 58.9689C67.0531 58.3759 66.9177 57.7692 66.8114 57.1654L66.8115 57.1654L66.8107 57.1613C66.7812 56.9974 66.7548 56.8426 66.7355 56.7006L66.7194 56.5822L66.7084 56.5542L66.7075 56.5488C66.6753 56.3586 66.6482 56.16 66.6193 55.9489L66.616 55.9246L66.6161 55.9246L66.6142 55.912C66.5656 55.5869 66.5304 55.2658 66.5023 54.9318L66.5002 54.907L66.4969 54.8823C66.4874 54.8117 66.4823 54.7394 66.4742 54.6254L66.4731 54.6095L66.4732 54.6095L66.4724 54.5993C66.4497 54.3184 66.4298 54.0703 66.4235 53.826L66.4228 53.8011L66.421 53.7764C66.4131 53.6723 66.4087 53.6017 66.4087 53.5392V53.4744L66.4004 53.4101C66.3988 53.398 66.3985 53.3864 66.3992 53.3754L66.4034 53.3136L66.4 53.2518C66.3919 53.1081 66.3864 53.0019 66.3864 52.8897V52.8644L66.3851 52.8391C66.3787 52.7128 66.3785 52.5748 66.3785 52.405C66.3785 51.7769 66.4007 51.1512 66.4437 50.5324L66.4443 50.5246L66.4447 50.5167C66.4473 50.4683 66.4514 50.4184 66.4571 50.3528L66.4581 50.3419C66.4629 50.286 66.469 50.216 66.4733 50.144C66.492 49.9087 66.5127 49.6819 66.5401 49.4584L66.5402 49.4584L66.5412 49.4487L66.5478 49.3903C66.5755 49.1442 66.6012 48.916 66.6325 48.6948C66.6517 48.5833 66.6687 48.4734 66.6844 48.3726L66.685 48.3688C66.7019 48.2594 66.7173 48.1604 66.7342 48.0627L66.7342 48.0627L66.7354 48.0558C66.7999 47.6674 66.8712 47.2911 66.9553 46.918L66.9553 46.918L66.9571 46.9099L66.9584 46.9036C67.0175 46.6313 67.0724 46.3777 67.1335 46.1341C67.1336 46.1337 67.1338 46.1333 67.1339 46.1328C67.1421 46.1036 67.1628 46.03 67.1791 45.9505C67.2398 45.7207 67.2977 45.5021 67.3585 45.2905L67.3862 45.257L67.4287 45.0522L67.435 45.0309V45.0217L67.4365 45.0147C67.4371 45.0119 67.4377 45.009 67.4383 45.0062C67.5787 44.8853 67.7227 44.766 67.8685 44.6483L67.8746 44.6434L67.8807 44.6383Z" stroke="black" stroke-width="2"/>
</g>
</g>
<g id="Group_23" style="mix-blend-mode:multiply" opacity="0.1">
<g id="Vector_34" style="mix-blend-mode:multiply" opacity="0.1">
<path d="M97.3715 39H102.12C97.8181 43.4042 92.6506 46.8757 86.9391 49.1929C87.2213 49.0224 87.4971 48.8469 87.7696 48.6676C87.8195 48.6373 87.868 48.6046 87.9149 48.5696C88.2075 48.3836 88.4871 48.1865 88.7468 47.9987C88.8182 47.9493 88.8931 47.8953 88.9627 47.8445C89.1828 47.6878 89.4001 47.5245 89.6054 47.3702L89.6127 47.3647L89.6199 47.3591C89.648 47.3371 89.683 47.3103 89.7222 47.2803C89.8183 47.2069 89.9393 47.1144 90.0437 47.0279C90.0658 47.0105 90.0882 46.993 90.1108 46.9752C90.255 46.8621 90.4089 46.7414 90.5564 46.6204L90.557 46.6199C90.7734 46.4421 90.9899 46.2583 91.1949 46.0842C91.2378 46.0477 91.2802 46.0117 91.322 45.9763L91.3348 45.9655L91.3472 45.9541C91.4026 45.9039 91.4589 45.8529 91.516 45.8013C91.7452 45.594 91.9858 45.3763 92.2195 45.1547C92.4956 44.9026 92.7632 44.6432 93.0296 44.3688L93.0416 44.3581C93.05 44.3507 93.0636 44.3386 93.0781 44.3253C93.0928 44.3119 93.1123 44.2937 93.1336 44.2724L93.1405 44.2654L93.1474 44.2583C93.325 44.0736 93.5086 43.8819 93.6865 43.6892C94.6382 42.6871 95.5237 41.6241 96.3375 40.5069L96.3386 40.5054C96.6525 40.0726 96.9697 39.6209 97.2693 39.1484C97.3038 39.0998 97.338 39.0499 97.3715 39Z" fill="black"/>
<path d="M97.3715 39H102.12C97.8181 43.4042 92.6506 46.8757 86.9391 49.1929C87.2213 49.0224 87.4971 48.8469 87.7696 48.6676C87.8195 48.6373 87.868 48.6046 87.9149 48.5696C88.2075 48.3836 88.4871 48.1865 88.7468 47.9987C88.8182 47.9493 88.8931 47.8953 88.9627 47.8445C89.1828 47.6878 89.4001 47.5245 89.6054 47.3702L89.6127 47.3647L89.6199 47.3591C89.648 47.3371 89.683 47.3103 89.7222 47.2803C89.8183 47.2069 89.9393 47.1144 90.0437 47.0279C90.0658 47.0105 90.0882 46.993 90.1108 46.9752C90.255 46.8621 90.4089 46.7414 90.5564 46.6204L90.557 46.6199C90.7734 46.4421 90.9899 46.2583 91.1949 46.0842C91.2378 46.0477 91.2802 46.0117 91.322 45.9763L91.3348 45.9655L91.3472 45.9541C91.4026 45.9039 91.4589 45.8529 91.516 45.8013C91.7452 45.594 91.9858 45.3763 92.2195 45.1547C92.4956 44.9026 92.7632 44.6432 93.0296 44.3688L93.0416 44.3581C93.05 44.3507 93.0636 44.3386 93.0781 44.3253C93.0928 44.3119 93.1123 44.2937 93.1336 44.2724L93.1405 44.2654L93.1474 44.2583C93.325 44.0736 93.5086 43.8819 93.6865 43.6892C94.6382 42.6871 95.5237 41.6241 96.3375 40.5069L96.3386 40.5054C96.6525 40.0726 96.9697 39.6209 97.2693 39.1484C97.3038 39.0998 97.338 39.0499 97.3715 39Z" stroke="black" stroke-width="2"/>
</g>
</g>
<g id="Group_24" style="mix-blend-mode:screen" opacity="0.6">
<g id="Vector_35" style="mix-blend-mode:screen" opacity="0.6">
<mask id="path-35-inside-1_11:2" fill="white">
<path d="M91.9308 74.0453C89.3691 77.0934 86.221 79.5957 82.6735 81.4035C79.1259 83.2112 75.2512 84.2876 71.2795 84.5687C71.391 84.5759 71.7413 84.591 72.2713 84.6061C72.6692 84.6169 73.0675 84.6068 73.4645 84.5759C73.981 84.5605 74.4963 84.5158 75.0079 84.4421C75.2956 84.4119 75.5833 84.3702 75.8882 84.3299C76.1867 84.2702 76.5002 84.2105 76.8232 84.1508C77.4647 84.0315 78.1285 83.8452 78.8146 83.6517C79.4857 83.4201 80.202 83.2339 80.8881 82.9282C81.5893 82.652 82.2755 82.3241 82.9616 81.9932C83.6326 81.6207 84.3115 81.2697 84.938 80.8598C85.5795 80.4721 86.1685 80.0248 86.7425 79.6069C87.3099 79.1668 87.8392 78.7266 88.3161 78.2872C88.7731 77.8798 89.2088 77.4492 89.6214 76.9969C90.017 76.5862 90.3529 76.1914 90.6434 75.8253C90.8981 75.5221 91.1369 75.2059 91.359 74.8781C91.6956 74.4107 91.8898 74.1122 91.9308 74.0453Z"/>
</mask>
<path d="M91.9308 74.0453C89.3691 77.0934 86.221 79.5957 82.6735 81.4035C79.1259 83.2112 75.2512 84.2876 71.2795 84.5687C71.391 84.5759 71.7413 84.591 72.2713 84.6061C72.6692 84.6169 73.0675 84.6068 73.4645 84.5759C73.981 84.5605 74.4963 84.5158 75.0079 84.4421C75.2956 84.4119 75.5833 84.3702 75.8882 84.3299C76.1867 84.2702 76.5002 84.2105 76.8232 84.1508C77.4647 84.0315 78.1285 83.8452 78.8146 83.6517C79.4857 83.4201 80.202 83.2339 80.8881 82.9282C81.5893 82.652 82.2755 82.3241 82.9616 81.9932C83.6326 81.6207 84.3115 81.2697 84.938 80.8598C85.5795 80.4721 86.1685 80.0248 86.7425 79.6069C87.3099 79.1668 87.8392 78.7266 88.3161 78.2872C88.7731 77.8798 89.2088 77.4492 89.6214 76.9969C90.017 76.5862 90.3529 76.1914 90.6434 75.8253C90.8981 75.5221 91.1369 75.2059 91.359 74.8781C91.6956 74.4107 91.8898 74.1122 91.9308 74.0453Z" fill="white"/>
<path d="M91.9308 74.0453L93.636 75.0904L90.3997 72.7585L91.9308 74.0453ZM82.6735 81.4035L83.5815 83.1855L83.5815 83.1855L82.6735 81.4035ZM71.2795 84.5687L71.1383 82.5737L71.1508 86.5645L71.2795 84.5687ZM72.2713 84.6061L72.2143 86.6053L72.217 86.6054L72.2713 84.6061ZM73.4645 84.5759L73.4047 82.5768L73.3569 82.5782L73.3091 82.5819L73.4645 84.5759ZM75.0079 84.4421L74.799 82.4531L74.7608 82.4571L74.7228 82.4625L75.0079 84.4421ZM75.8882 84.3299L76.1501 86.3127L76.2156 86.304L76.2804 86.2911L75.8882 84.3299ZM76.8232 84.1508L77.1867 86.1175L77.1891 86.1171L76.8232 84.1508ZM78.8146 83.6517L79.3574 85.5767L79.4128 85.561L79.4671 85.5423L78.8146 83.6517ZM80.8881 82.9282L80.1552 81.0673L80.1144 81.0834L80.0742 81.1013L80.8881 82.9282ZM82.9616 81.9932L83.8302 83.7947L83.8821 83.7697L83.9324 83.7418L82.9616 81.9932ZM84.938 80.8598L83.9036 79.148L83.8729 79.1666L83.8428 79.1863L84.938 80.8598ZM86.7425 79.6069L87.9196 81.2238L87.9442 81.2059L87.9683 81.1872L86.7425 79.6069ZM88.3161 78.2872L86.9853 76.7942L86.9729 76.8052L86.9607 76.8165L88.3161 78.2872ZM89.6214 76.9969L88.181 75.6094L88.1623 75.6289L88.1441 75.6488L89.6214 76.9969ZM90.6434 75.8253L89.1119 74.539L89.0941 74.5603L89.0769 74.582L90.6434 75.8253ZM91.359 74.8781L89.736 73.7095L89.7193 73.7327L89.7033 73.7564L91.359 74.8781ZM90.3997 72.7585C88.0104 75.6015 85.0742 77.9354 81.7654 79.6215L83.5815 83.1855C87.3679 81.256 90.7278 78.5853 93.4619 75.332L90.3997 72.7585ZM81.7654 79.6215C78.4566 81.3076 74.8427 82.3115 71.1383 82.5737L71.4207 86.5637C75.6597 86.2637 79.7952 85.1149 83.5815 83.1855L81.7654 79.6215ZM71.1508 86.5645C71.3017 86.5743 71.684 86.5902 72.2143 86.6053L72.3283 82.6069C71.7986 82.5918 71.4803 82.5775 71.4083 82.5728L71.1508 86.5645ZM72.217 86.6054C72.6849 86.6181 73.1532 86.6062 73.6198 86.5699L73.3091 82.5819C72.9819 82.6074 72.6536 82.6157 72.3256 82.6068L72.217 86.6054ZM73.5242 86.575C74.1162 86.5573 74.7067 86.5061 75.293 86.4217L74.7228 82.4625C74.2859 82.5255 73.8458 82.5636 73.4047 82.5768L73.5242 86.575ZM75.2167 86.4312C75.5398 86.3973 75.8789 86.3485 76.1501 86.3127L75.6263 82.3471C75.2876 82.3919 75.0513 82.4266 74.799 82.4531L75.2167 86.4312ZM76.2804 86.2911C76.5666 86.2338 76.8701 86.176 77.1867 86.1175L76.4596 82.1842C76.1303 82.245 75.8067 82.3066 75.496 82.3688L76.2804 86.2911ZM77.1891 86.1171C77.9355 85.9782 78.6878 85.7655 79.3574 85.5767L78.2719 81.7268C77.5692 81.9249 76.9939 82.0847 76.4573 82.1846L77.1891 86.1171ZM79.4671 85.5423C79.9342 85.3811 80.9183 85.1042 81.702 84.7551L80.0742 81.1013C79.4857 81.3635 79.0372 81.4592 78.1622 81.7611L79.4671 85.5423ZM81.621 84.7891C82.4007 84.482 83.1497 84.1229 83.8302 83.7947L82.0929 80.1917C81.4013 80.5252 80.778 80.822 80.1552 81.0673L81.621 84.7891ZM83.9324 83.7418C84.5321 83.4089 85.3259 82.9961 86.0331 82.5333L83.8428 79.1863C83.2972 79.5433 82.7331 79.8325 81.9908 80.2446L83.9324 83.7418ZM85.9723 82.5715C86.7081 82.1269 87.3913 81.6085 87.9196 81.2238L85.5653 77.9901C84.9458 78.4411 84.4509 78.8173 83.9036 79.148L85.9723 82.5715ZM87.9683 81.1872C88.5684 80.7217 89.1432 80.2447 89.6714 79.7579L86.9607 76.8165C86.5353 77.2085 86.0514 77.6118 85.5167 78.0266L87.9683 81.1872ZM89.6469 79.7801C90.1552 79.327 90.6398 78.848 91.0988 78.345L88.1441 75.6488C87.7777 76.0503 87.3909 76.4326 86.9853 76.7942L89.6469 79.7801ZM91.0619 78.3844C91.5098 77.9193 91.8877 77.4748 92.21 77.0687L89.0769 74.582C88.8181 74.9081 88.5242 75.2532 88.181 75.6094L91.0619 78.3844ZM92.1749 77.1116C92.4739 76.7557 92.7542 76.3846 93.0148 75.9999L89.7033 73.7564C89.5197 74.0273 89.3223 74.2885 89.1119 74.539L92.1749 77.1116ZM92.9821 76.0467C93.3334 75.5589 93.559 75.2161 93.636 75.0904L90.2256 73.0002C90.2288 72.9949 90.1899 73.0569 90.0996 73.1902C90.0147 73.3157 89.893 73.4914 89.736 73.7095L92.9821 76.0467Z" fill="black" mask="url(#path-35-inside-1_11:2)"/>
</g>
</g>
<g id="Group_25" style="mix-blend-mode:screen" opacity="0.6">
<g id="Vector_36" style="mix-blend-mode:screen" opacity="0.6">
<mask id="path-37-inside-2_11:2" fill="white">
<path d="M96.8215 38.0152V38.0073C96.7769 38.0526 96.5827 38.254 96.285 38.5891C95.9491 38.9624 95.4643 39.4989 94.8897 40.1404C94.5919 40.454 94.2784 40.7877 93.9425 41.1473C93.6066 41.5069 93.2341 41.8557 92.8766 42.2434C92.1157 42.9892 91.303 43.7724 90.4601 44.5183C89.6172 45.2792 88.734 45.9876 87.917 46.6514C87.4855 46.965 87.0964 47.2987 86.6943 47.5864C86.2923 47.8741 85.9262 48.1531 85.5832 48.407C84.8891 48.914 84.3073 49.3247 83.8822 49.6153C83.5694 49.831 83.3601 49.9878 83.2709 50.0554C88.8439 47.417 93.5458 43.2391 96.8215 38.0152Z"/>
</mask>
<path d="M96.8215 38.0152V38.0073C96.7769 38.0526 96.5827 38.254 96.285 38.5891C95.9491 38.9624 95.4643 39.4989 94.8897 40.1404C94.5919 40.454 94.2784 40.7877 93.9425 41.1473C93.6066 41.5069 93.2341 41.8557 92.8766 42.2434C92.1157 42.9892 91.303 43.7724 90.4601 44.5183C89.6172 45.2792 88.734 45.9876 87.917 46.6514C87.4855 46.965 87.0964 47.2987 86.6943 47.5864C86.2923 47.8741 85.9262 48.1531 85.5832 48.407C84.8891 48.914 84.3073 49.3247 83.8822 49.6153C83.5694 49.831 83.3601 49.9878 83.2709 50.0554C88.8439 47.417 93.5458 43.2391 96.8215 38.0152Z" fill="white"/>
<path d="M96.8215 38.0152L98.5159 39.0777L98.8215 38.5904V38.0152H96.8215ZM96.8215 38.0073H98.8215V33.1237L95.396 36.6044L96.8215 38.0073ZM96.285 38.5891L97.7717 39.9269L97.7801 39.9174L96.285 38.5891ZM94.8897 40.1404L96.34 41.5176L96.36 41.4965L96.3794 41.4749L94.8897 40.1404ZM92.8766 42.2434L94.2766 43.6717L94.3127 43.6363L94.347 43.5992L92.8766 42.2434ZM90.4601 44.5183L89.1348 43.0204L89.1273 43.027L89.1199 43.0337L90.4601 44.5183ZM87.917 46.6514L89.0927 48.2694L89.1363 48.2377L89.1782 48.2036L87.917 46.6514ZM85.5832 48.407L86.763 50.022L86.7729 50.0147L85.5832 48.407ZM83.8822 49.6153L82.7536 47.9642L82.7468 47.9688L83.8822 49.6153ZM83.2709 50.0554L82.0627 48.4616L84.1267 51.8631L83.2709 50.0554ZM98.8215 38.0152V38.0073H94.8215V38.0152H98.8215ZM95.396 36.6044C95.3254 36.6761 95.108 36.9025 94.7898 37.2608L97.7801 39.9174C98.0574 39.6054 98.2283 39.4291 98.247 39.4101L95.396 36.6044ZM94.7982 37.2513C94.4657 37.6209 93.9765 38.1624 93.4 38.806L96.3794 41.4749C96.9522 40.8355 97.4325 40.3039 97.7717 39.9269L94.7982 37.2513ZM93.4394 38.7633C93.1367 39.0821 92.8191 39.42 92.4809 39.7822L95.4041 42.5125C95.7376 42.1555 96.0472 41.826 96.34 41.5176L93.4394 38.7633ZM92.4809 39.7822C92.3394 39.9337 92.1875 40.0858 92.0003 40.2738C91.8215 40.4534 91.6141 40.6623 91.4063 40.8876L94.347 43.5992C94.4966 43.4369 94.6542 43.2776 94.835 43.0959C95.0074 42.9227 95.2097 42.7206 95.4041 42.5125L92.4809 39.7822ZM91.4767 40.8151C90.7216 41.5551 89.9383 42.3094 89.1348 43.0204L91.7854 46.0161C92.6677 45.2354 93.5098 44.4233 94.2766 43.6717L91.4767 40.8151ZM89.1199 43.0337C88.3247 43.7516 87.489 44.4222 86.6558 45.0992L89.1782 48.2036C89.979 47.553 90.9097 46.8067 91.8003 46.0028L89.1199 43.0337ZM86.7413 45.0335C86.4889 45.2169 86.253 45.4032 86.0576 45.5571C85.8511 45.7196 85.6884 45.8469 85.5305 45.9599L87.8582 49.2129C88.1023 49.0382 88.3352 48.8548 88.5316 48.7002C88.7391 48.5368 88.9136 48.3995 89.0927 48.2694L86.7413 45.0335ZM85.5305 45.9599C85.1122 46.2592 84.7062 46.5679 84.3934 46.7993L86.7729 50.0147C87.1462 49.7384 87.4724 49.4889 87.8582 49.2129L85.5305 45.9599ZM84.4033 46.7921C83.7226 47.2894 83.1581 47.6877 82.7536 47.9642L85.0109 51.2664C85.4565 50.9617 86.0557 50.5387 86.763 50.0219L84.4033 46.7921ZM82.7468 47.9688C82.4037 48.2054 82.1696 48.3805 82.0627 48.4616L84.4791 51.6492C84.5506 51.5951 84.7351 51.4566 85.0177 51.2617L82.7468 47.9688ZM84.1267 51.8631C90.0446 49.0614 95.0375 44.6249 98.5159 39.0777L95.127 36.9527C92.0541 41.8534 87.6432 45.7727 82.4151 48.2478L84.1267 51.8631Z" fill="black" mask="url(#path-37-inside-2_11:2)"/>
</g>
</g>
<g id="Group_26" style="mix-blend-mode:screen" opacity="0.6">
<g id="Vector_37" style="mix-blend-mode:screen" opacity="0.6">
<mask id="path-39-inside-3_11:2" fill="white">
<path d="M65.3756 52.4016C65.3719 49.8594 65.7285 47.3295 66.435 44.8874V44.8579C66.435 44.8579 66.2638 45.2383 66.0171 45.9317C65.6763 46.8864 65.4118 47.8666 65.226 48.8631C64.9492 50.2806 64.8119 51.7218 64.816 53.1661C64.8102 53.9805 64.8474 54.7946 64.9275 55.605C65.0174 56.4328 65.1368 57.2757 65.308 58.1035C65.4791 58.9313 65.7035 59.7519 65.9552 60.5488C66.0718 60.9459 66.2089 61.3368 66.3659 61.7197C66.5098 62.1001 66.6637 62.4734 66.8284 62.8387C67.1283 63.537 67.4694 64.2168 67.8496 64.8748C68.1767 65.4713 68.5368 66.049 68.9284 66.6052C69.2503 67.08 69.5962 67.538 69.9648 67.9775C70.2784 68.3802 70.5912 68.701 70.8279 68.9765C71.2903 69.4468 71.5816 69.7223 71.6334 69.7676C67.5794 64.8897 65.3648 58.7442 65.3756 52.4016Z"/>
</mask>
<path d="M65.3756 52.4016C65.3719 49.8594 65.7285 47.3295 66.435 44.8874V44.8579C66.435 44.8579 66.2638 45.2383 66.0171 45.9317C65.6763 46.8864 65.4118 47.8666 65.226 48.8631C64.9492 50.2806 64.8119 51.7218 64.816 53.1661C64.8102 53.9805 64.8474 54.7946 64.9275 55.605C65.0174 56.4328 65.1368 57.2757 65.308 58.1035C65.4791 58.9313 65.7035 59.7519 65.9552 60.5488C66.0718 60.9459 66.2089 61.3368 66.3659 61.7197C66.5098 62.1001 66.6637 62.4734 66.8284 62.8387C67.1283 63.537 67.4694 64.2168 67.8496 64.8748C68.1767 65.4713 68.5368 66.049 68.9284 66.6052C69.2503 67.08 69.5962 67.538 69.9648 67.9775C70.2784 68.3802 70.5912 68.701 70.8279 68.9765C71.2903 69.4468 71.5816 69.7223 71.6334 69.7676C67.5794 64.8897 65.3648 58.7442 65.3756 52.4016Z" fill="white"/>
<path d="M65.3756 52.4016L67.3756 52.405L67.3756 52.3987L65.3756 52.4016ZM66.435 44.8874L68.3562 45.4431L68.435 45.1708V44.8874H66.435ZM66.435 44.8579H68.435L64.611 44.0373L66.435 44.8579ZM66.0171 45.9317L67.9007 46.6039L67.9014 46.6021L66.0171 45.9317ZM65.226 48.8631L67.1889 49.2463L67.1905 49.2381L67.1921 49.2298L65.226 48.8631ZM64.816 53.1661L66.816 53.1805L66.816 53.1705L66.816 53.1605L64.816 53.1661ZM64.9275 55.605L62.9372 55.8018L62.9382 55.8113L62.9392 55.8209L64.9275 55.605ZM65.308 58.1035L63.3494 58.5085L63.3494 58.5085L65.308 58.1035ZM65.9552 60.5488L67.8743 59.9855L67.8685 59.9659L67.8624 59.9464L65.9552 60.5488ZM66.3659 61.7197L68.2367 61.0124L68.2269 60.9865L68.2164 60.9609L66.3659 61.7197ZM66.8284 62.8387L68.6659 62.0492L68.6589 62.033L68.6517 62.0168L66.8284 62.8387ZM67.8496 64.8748L69.6033 63.9133L69.5925 63.8936L69.5813 63.8741L67.8496 64.8748ZM68.9284 66.6052L70.5839 65.483L70.574 65.4683L70.5638 65.4539L68.9284 66.6052ZM69.9648 67.9775L71.5429 66.7488L71.5205 66.7201L71.4971 66.6922L69.9648 67.9775ZM70.8279 68.9765L69.3108 70.2797L69.3546 70.3307L69.4017 70.3786L70.8279 68.9765ZM71.6334 69.7676L70.3164 71.2727L73.1715 68.4892L71.6334 69.7676ZM67.3756 52.3987C67.3722 50.0455 67.7023 47.7037 68.3562 45.4431L64.5137 44.3316C63.7548 46.9553 63.3716 49.6733 63.3756 52.4045L67.3756 52.3987ZM68.435 44.8874V44.8579H64.435V44.8874H68.435ZM66.435 44.8579C64.611 44.0373 64.611 44.0374 64.6109 44.0375C64.6109 44.0376 64.6108 44.0377 64.6108 44.0378C64.6107 44.038 64.6106 44.0382 64.6106 44.0384C64.6104 44.0388 64.6102 44.0392 64.61 44.0396C64.6096 44.0405 64.6092 44.0414 64.6087 44.0425C64.6078 44.0446 64.6067 44.0471 64.6054 44.0499C64.6029 44.0556 64.5997 44.0628 64.5959 44.0715C64.5882 44.0889 64.5781 44.1122 64.5657 44.1412C64.5408 44.1993 64.5067 44.2806 64.4648 44.3839C64.3811 44.5906 64.2664 44.8858 64.1328 45.2612L67.9014 46.6021C68.0145 46.2842 68.1087 46.0425 68.1722 45.8856C68.204 45.8072 68.2281 45.75 68.243 45.7151C68.2505 45.6976 68.2557 45.6858 68.2584 45.6796C68.2597 45.6765 68.2605 45.6749 68.2605 45.6747C68.2606 45.6746 68.2605 45.6749 68.2602 45.6755C68.2601 45.6758 68.2599 45.6762 68.2597 45.6767C68.2595 45.677 68.2594 45.6772 68.2593 45.6775C68.2592 45.6777 68.2592 45.6778 68.2591 45.678C68.259 45.678 68.259 45.6782 68.259 45.6782C68.2589 45.6783 68.2589 45.6785 66.435 44.8579ZM64.1335 45.2594C63.7572 46.3137 63.4651 47.3961 63.2599 48.4965L67.1921 49.2298C67.3585 48.3371 67.5955 47.4591 67.9007 46.6039L64.1335 45.2594ZM63.263 48.4799C62.9613 50.0255 62.8116 51.597 62.816 53.1718L66.816 53.1605C66.8123 51.8467 66.9372 50.5357 67.1889 49.2463L63.263 48.4799ZM62.8161 53.1517C62.8097 54.0366 62.8501 54.9212 62.9372 55.8018L66.9178 55.4082C66.8446 54.668 66.8106 53.9244 66.816 53.1805L62.8161 53.1517ZM62.9392 55.8209C63.0336 56.6905 63.1615 57.6 63.3494 58.5085L67.2665 57.6985C67.112 56.9514 67.0012 56.175 66.9158 55.389L62.9392 55.8209ZM63.3494 58.5085C63.5373 59.4174 63.7809 60.3053 64.0481 61.1512L67.8624 59.9464C67.6261 59.1985 67.4209 58.4452 67.2665 57.6985L63.3494 58.5085ZM64.0362 61.1121C64.1723 61.5756 64.3322 62.0316 64.5154 62.4784L68.2164 60.9609C68.0856 60.6419 67.9714 60.3163 67.8743 59.9855L64.0362 61.1121ZM64.4951 62.4269C64.6528 62.844 64.8225 63.2557 65.0051 63.6607L68.6517 62.0168C68.5048 61.6911 68.3667 61.3562 68.2367 61.0124L64.4951 62.4269ZM64.9908 63.6283C65.3219 64.399 65.6983 65.1493 66.118 65.8755L69.5813 63.8741C69.2404 63.2843 68.9348 62.6749 68.6659 62.0492L64.9908 63.6283ZM66.0959 65.8364C66.4588 66.4982 66.8585 67.1393 67.2931 67.7566L70.5638 65.4539C70.2152 64.9587 69.8945 64.4443 69.6033 63.9133L66.0959 65.8364ZM67.273 67.7275C67.6331 68.2586 68.0201 68.7711 68.4325 69.2628L71.4971 66.6922C71.1724 66.305 70.8675 65.9013 70.5839 65.483L67.273 67.7275ZM68.3867 69.2061C68.7286 69.6452 69.1908 70.14 69.3108 70.2797L72.345 67.6732C71.9917 67.262 71.8282 67.1152 71.5429 66.7488L68.3867 69.2061ZM69.4017 70.3786C69.8654 70.8502 70.2027 71.1733 70.3164 71.2727L72.9504 68.2624C72.9699 68.2795 72.9201 68.2349 72.779 68.0976C72.653 67.9751 72.4751 67.7992 72.254 67.5743L69.4017 70.3786ZM73.1715 68.4892C69.4167 63.9714 67.3656 58.2795 67.3756 52.405L63.3756 52.3982C63.3641 59.209 65.742 65.808 70.0952 71.0459L73.1715 68.4892Z" fill="black" mask="url(#path-39-inside-3_11:2)"/>
</g>
</g>
<g id="Group_27" style="mix-blend-mode:multiply" opacity="0.3">
<g id="Vector_38" style="mix-blend-mode:multiply" opacity="0.3">
<mask id="path-41-inside-4_11:2" fill="white">
<path d="M108.365 38.0003H83.4917C77.555 38.0016 71.8055 40.0778 67.2377 43.8698C67.9389 43.3556 68.6473 42.8708 69.3859 42.4156C70.1358 41.9522 70.9098 41.5289 71.7046 41.1476C72.3685 40.8196 73.0474 40.5363 73.7335 40.2752C73.8608 40.2227 73.9946 40.1781 74.1291 40.1256C74.9501 39.8186 75.7864 39.5546 76.6348 39.3345C77.4799 39.1108 78.3362 38.9317 79.2002 38.7979C80.0633 38.6786 80.9306 38.5823 81.7958 38.5441C82.661 38.506 83.5262 38.5139 84.4209 38.5218L87.082 38.5513L92.3998 38.5887H97.7176C99.7841 38.5887 101.85 38.5762 103.915 38.5513C105.228 38.5441 106.541 38.5218 107.845 38.5067L107.838 39.0102L107.727 40.017L107.529 41.0038L107.254 41.9811L106.888 42.9355L106.441 43.8525L105.919 44.7328L105.322 45.5678L104.665 46.351L103.946 47.0897L103.17 47.7686L102.335 48.3799L101.44 48.9172L100.505 49.3796L99.535 49.7673L98.5282 50.0729C101.307 49.5005 103.803 47.9868 105.595 45.7874C107.387 43.5879 108.365 40.8375 108.365 38.0003Z"/>
</mask>
<path d="M108.365 38.0003H83.4917C77.555 38.0016 71.8055 40.0778 67.2377 43.8698C67.9389 43.3556 68.6473 42.8708 69.3859 42.4156C70.1358 41.9522 70.9098 41.5289 71.7046 41.1476C72.3685 40.8196 73.0474 40.5363 73.7335 40.2752C73.8608 40.2227 73.9946 40.1781 74.1291 40.1256C74.9501 39.8186 75.7864 39.5546 76.6348 39.3345C77.4799 39.1108 78.3362 38.9317 79.2002 38.7979C80.0633 38.6786 80.9306 38.5823 81.7958 38.5441C82.661 38.506 83.5262 38.5139 84.4209 38.5218L87.082 38.5513L92.3998 38.5887H97.7176C99.7841 38.5887 101.85 38.5762 103.915 38.5513C105.228 38.5441 106.541 38.5218 107.845 38.5067L107.838 39.0102L107.727 40.017L107.529 41.0038L107.254 41.9811L106.888 42.9355L106.441 43.8525L105.919 44.7328L105.322 45.5678L104.665 46.351L103.946 47.0897L103.17 47.7686L102.335 48.3799L101.44 48.9172L100.505 49.3796L99.535 49.7673L98.5282 50.0729C101.307 49.5005 103.803 47.9868 105.595 45.7874C107.387 43.5879 108.365 40.8375 108.365 38.0003Z" fill="black"/>
<path d="M108.365 38.0003L110.365 37.9998L110.364 36.0003H108.365V38.0003ZM83.4917 38.0003V36.0003H83.4913L83.4917 38.0003ZM67.2377 43.8698L65.9602 42.3309L68.4204 45.4826L67.2377 43.8698ZM69.3859 42.4156L70.4353 44.1181L70.4372 44.1169L69.3859 42.4156ZM71.7046 41.1476L72.5697 42.9508L72.5801 42.9458L72.5905 42.9407L71.7046 41.1476ZM73.7335 40.2752L74.4448 42.1444L74.4706 42.1346L74.4961 42.1241L73.7335 40.2752ZM74.1291 40.1256L73.4287 38.2523L73.4152 38.2573L73.4018 38.2625L74.1291 40.1256ZM76.6348 39.3345L77.1372 41.2704L77.1465 41.2679L76.6348 39.3345ZM79.2002 38.7979L78.9262 36.8168L78.9102 36.819L78.8942 36.8215L79.2002 38.7979ZM84.4209 38.5218L84.4431 36.5219L84.4386 36.5218L84.4209 38.5218ZM87.082 38.5513L87.0598 40.5512L87.0679 40.5513L87.082 38.5513ZM92.3998 38.5887L92.3857 40.5887H92.3998V38.5887ZM103.915 38.5513L103.904 36.5513L103.891 36.5515L103.915 38.5513ZM107.845 38.5067L109.845 38.5352L109.875 36.483L107.822 36.5068L107.845 38.5067ZM107.838 39.0102L109.826 39.2303L109.837 39.1348L109.838 39.0388L107.838 39.0102ZM107.727 40.017L109.688 40.4101L109.705 40.3242L109.715 40.2371L107.727 40.017ZM107.529 41.0038L109.454 41.5463L109.475 41.4722L109.49 41.3968L107.529 41.0038ZM107.254 41.9811L109.121 42.6962L109.154 42.6112L109.179 42.5237L107.254 41.9811ZM106.888 42.9355L108.686 43.8124L108.724 43.7331L108.756 43.6506L106.888 42.9355ZM106.441 43.8525L108.161 44.8728L108.203 44.8027L108.238 44.7294L106.441 43.8525ZM105.919 44.7328L107.546 45.896L107.595 45.8265L107.639 45.7531L105.919 44.7328ZM105.322 45.5678L106.854 46.8528L106.904 46.7937L106.949 46.731L105.322 45.5678ZM104.665 46.351L106.098 47.7463L106.15 47.693L106.198 47.636L104.665 46.351ZM103.946 47.0897L105.263 48.5949L105.323 48.5422L105.379 48.4849L103.946 47.0897ZM103.17 47.7686L104.351 49.3823L104.421 49.331L104.487 49.2738L103.17 47.7686ZM102.335 48.3799L103.364 50.0949L103.442 50.0478L103.516 49.9937L102.335 48.3799ZM101.44 48.9172L102.326 50.7099L102.399 50.6739L102.468 50.6322L101.44 48.9172ZM100.505 49.3796L101.247 51.2367L101.32 51.2073L101.391 51.1723L100.505 49.3796ZM99.535 49.7673L100.116 51.681L100.198 51.6561L100.278 51.6243L99.535 49.7673ZM98.5282 50.0729L97.9472 48.1592L98.9317 52.0318L98.5282 50.0729ZM105.595 45.7874L107.146 47.0508L107.146 47.0507L105.595 45.7874ZM108.365 36.0003H83.4917V40.0003H108.365V36.0003ZM83.4913 36.0003C77.0882 36.0017 70.8869 38.241 65.9602 42.3309L68.5151 45.4086C72.7241 41.9145 78.0219 40.0015 83.4921 40.0003L83.4913 36.0003ZM68.4204 45.4826C69.0869 44.9938 69.7505 44.5402 70.4353 44.1181L68.3365 40.713C67.5441 41.2014 66.7909 41.7173 66.0549 42.257L68.4204 45.4826ZM70.4372 44.1169C71.127 43.6907 71.8387 43.3015 72.5697 42.9508L70.8396 39.3444C69.9808 39.7563 69.1447 40.2136 68.3346 40.7142L70.4372 44.1169ZM72.5905 42.9407C73.1802 42.6494 73.7969 42.391 74.4448 42.1444L73.0223 38.4059C72.2979 38.6816 71.5567 38.9899 70.8188 39.3545L72.5905 42.9407ZM74.4961 42.1241C74.6549 42.0586 74.5407 42.1119 74.8564 41.9887L73.4018 38.2625C73.359 38.2792 73.3176 38.2942 73.2398 38.3228C73.1722 38.3476 73.0744 38.3836 72.971 38.4263L74.4961 42.1241ZM74.8295 41.9989C75.5855 41.7163 76.3557 41.4731 77.1372 41.2704L76.1325 37.3986C75.2171 37.6361 74.3146 37.921 73.4287 38.2523L74.8295 41.9989ZM77.1465 41.2679C77.9239 41.0622 78.7115 40.8974 79.5062 40.7744L78.8942 36.8215C77.9609 36.966 77.036 37.1594 76.1231 37.401L77.1465 41.2679ZM79.4743 40.7791C80.3049 40.6642 81.1047 40.5765 81.8839 40.5422L81.7078 36.5461C80.7565 36.588 79.8216 36.6929 78.9262 36.8168L79.4743 40.7791ZM81.8839 40.5422C82.6871 40.5068 83.4989 40.5137 84.4032 40.5217L84.4386 36.5218C83.5536 36.514 82.6349 36.5052 81.7078 36.5461L81.8839 40.5422ZM84.3987 40.5216L87.0598 40.5512L87.1042 36.5514L84.4431 36.5219L84.3987 40.5216ZM87.0679 40.5513L92.3857 40.5887L92.4139 36.5888L87.0961 36.5514L87.0679 40.5513ZM92.3998 40.5887H97.7176V36.5887H92.3998V40.5887ZM97.7176 40.5887C99.7922 40.5887 101.866 40.5762 103.939 40.5512L103.891 36.5515C101.834 36.5763 99.776 36.5887 97.7176 36.5887V40.5887ZM103.926 40.5513C105.247 40.5441 106.579 40.5215 107.869 40.5065L107.822 36.5068C106.502 36.5221 105.21 36.5442 103.904 36.5514L103.926 40.5513ZM105.846 38.4781L105.838 38.9816L109.838 39.0388L109.845 38.5352L105.846 38.4781ZM105.85 38.7901L105.739 39.7969L109.715 40.2371L109.826 39.2303L105.85 38.7901ZM105.766 39.6239L105.568 40.6107L109.49 41.3968L109.688 40.4101L105.766 39.6239ZM105.604 40.4612L105.329 41.4386L109.179 42.5237L109.454 41.5463L105.604 40.4612ZM105.386 41.2661L105.02 42.2205L108.756 43.6506L109.121 42.6962L105.386 41.2661ZM105.091 42.0586L104.643 42.9756L108.238 44.7294L108.686 43.8124L105.091 42.0586ZM104.721 42.8322L104.199 43.7125L107.639 45.7531L108.161 44.8728L104.721 42.8322ZM104.292 43.5697L103.695 44.4047L106.949 46.731L107.546 45.896L104.292 43.5697ZM103.789 44.2829L103.133 45.0661L106.198 47.636L106.854 46.8528L103.789 44.2829ZM103.232 44.9558L102.513 45.6944L105.379 48.4849L106.098 47.7463L103.232 44.9558ZM102.629 45.5844L101.853 46.2634L104.487 49.2738L105.263 48.5949L102.629 45.5844ZM101.988 46.1549L101.153 46.7662L103.516 49.9937L104.351 49.3823L101.988 46.1549ZM101.306 46.6649L100.411 47.2022L102.468 50.6322L103.364 50.0949L101.306 46.6649ZM100.553 47.1245L99.6178 47.5869L101.391 51.1723L102.326 50.7099L100.553 47.1245ZM99.762 47.5226L98.7925 47.9102L100.278 51.6243L101.247 51.2367L99.762 47.5226ZM98.9541 47.8535L97.9472 48.1592L99.1091 51.9867L100.116 51.681L98.9541 47.8535ZM98.9317 52.0318C102.161 51.3665 105.063 49.6071 107.146 47.0508L104.045 44.5241C102.543 46.3665 100.452 47.6346 98.1246 48.1141L98.9317 52.0318ZM107.146 47.0507C109.229 44.4943 110.366 41.2974 110.365 37.9998L106.365 38.0009C106.365 40.3775 105.546 42.6816 104.045 44.5241L107.146 47.0507Z" fill="black" mask="url(#path-41-inside-4_11:2)"/>
</g>
</g>
<g id="Group_28" style="mix-blend-mode:multiply" opacity="0.3">
<g id="Vector_39" style="mix-blend-mode:multiply" opacity="0.3">
<mask id="path-43-inside-5_11:2" fill="white">
<path d="M108.991 63.4916V57.3244H100.243C101.697 57.4208 103.159 57.4733 104.613 57.5402C105.948 57.5999 107.274 57.6445 108.611 57.684L108.491 62.3977C108.476 63.2478 108.484 64.0756 108.419 64.8962C108.361 65.7211 108.262 66.5425 108.121 67.3573C107.993 68.1699 107.819 68.9743 107.599 69.7667C107.386 70.5713 107.13 71.3636 106.831 72.1401C106.57 72.9082 106.204 73.6619 105.876 74.4149C105.481 75.1384 105.138 75.8914 104.675 76.5776C104.265 77.2968 103.773 77.9577 103.295 78.6366C103.056 78.9718 102.781 79.2839 102.527 79.6061C102.274 79.9346 102.003 80.2482 101.714 80.5454C101.431 80.8439 101.155 81.1575 100.864 81.448L99.9616 82.3111C99.6739 82.5988 99.3352 82.8483 99.0216 83.1238C98.7016 83.3849 98.3952 83.6611 98.0521 83.8998L97.0452 84.6377L95.9937 85.3095C95.6435 85.5475 95.2745 85.741 94.9149 85.9431C94.5553 86.1452 94.1914 86.3681 93.811 86.54C93.0572 86.8996 92.3006 87.2635 91.5059 87.5469C90.7457 87.8677 89.9474 88.0834 89.1642 88.3524C93.7568 87.2974 97.9684 84.9934 101.334 81.6951C104.699 78.3966 107.087 74.2322 108.235 69.6617C108.742 67.6444 108.996 65.5718 108.991 63.4916Z"/>
</mask>
<path d="M108.991 63.4916V57.3244H100.243C101.697 57.4208 103.159 57.4733 104.613 57.5402C105.948 57.5999 107.274 57.6445 108.611 57.684L108.491 62.3977C108.476 63.2478 108.484 64.0756 108.419 64.8962C108.361 65.7211 108.262 66.5425 108.121 67.3573C107.993 68.1699 107.819 68.9743 107.599 69.7667C107.386 70.5713 107.13 71.3636 106.831 72.1401C106.57 72.9082 106.204 73.6619 105.876 74.4149C105.481 75.1384 105.138 75.8914 104.675 76.5776C104.265 77.2968 103.773 77.9577 103.295 78.6366C103.056 78.9718 102.781 79.2839 102.527 79.6061C102.274 79.9346 102.003 80.2482 101.714 80.5454C101.431 80.8439 101.155 81.1575 100.864 81.448L99.9616 82.3111C99.6739 82.5988 99.3352 82.8483 99.0216 83.1238C98.7016 83.3849 98.3952 83.6611 98.0521 83.8998L97.0452 84.6377L95.9937 85.3095C95.6435 85.5475 95.2745 85.741 94.9149 85.9431C94.5553 86.1452 94.1914 86.3681 93.811 86.54C93.0572 86.8996 92.3006 87.2635 91.5059 87.5469C90.7457 87.8677 89.9474 88.0834 89.1642 88.3524C93.7568 87.2974 97.9684 84.9934 101.334 81.6951C104.699 78.3966 107.087 74.2322 108.235 69.6617C108.742 67.6444 108.996 65.5718 108.991 63.4916Z" fill="black"/>
<path d="M108.991 63.4916H106.991L106.991 63.4961L108.991 63.4916ZM108.991 57.3244H110.991V55.3244H108.991V57.3244ZM100.243 57.3244V55.3244L100.111 59.32L100.243 57.3244ZM104.613 57.5402L104.522 59.5381L104.524 59.5382L104.613 57.5402ZM108.611 57.684L110.61 57.7347L110.661 55.7438L108.67 55.6849L108.611 57.684ZM108.491 62.3977L106.492 62.347L106.492 62.3546L106.492 62.3622L108.491 62.3977ZM108.419 64.8962L106.426 64.7389L106.425 64.7472L106.424 64.7555L108.419 64.8962ZM108.121 67.3573L106.15 67.0171L106.148 67.0321L106.145 67.0473L108.121 67.3573ZM107.599 69.7667L105.672 69.2309L105.668 69.2435L105.665 69.2561L107.599 69.7667ZM106.831 72.1401L104.964 71.4211L104.95 71.4585L104.937 71.4965L106.831 72.1401ZM105.876 74.4149L107.631 75.373L107.673 75.2957L107.709 75.215L105.876 74.4149ZM104.675 76.5776L103.017 75.4597L102.975 75.522L102.938 75.5871L104.675 76.5776ZM103.295 78.6366L104.924 79.7972L104.931 79.7873L103.295 78.6366ZM102.527 79.6061L100.956 78.3683L100.949 78.3774L100.942 78.3865L102.527 79.6061ZM101.714 80.5454L100.279 79.1522L100.272 79.1602L100.264 79.1684L101.714 80.5454ZM100.864 81.448L102.246 82.8935L102.263 82.8781L102.278 82.8622L100.864 81.448ZM99.9616 82.3111L98.5794 80.8656L98.5632 80.881L98.5474 80.8969L99.9616 82.3111ZM99.0216 83.1238L100.286 84.6736L100.314 84.6505L100.342 84.6264L99.0216 83.1238ZM98.0521 83.8998L96.9096 82.2583L96.8896 82.2722L96.8699 82.2867L98.0521 83.8998ZM97.0452 84.6377L98.122 86.3232L98.1759 86.2887L98.2275 86.2509L97.0452 84.6377ZM95.9937 85.3095L94.917 83.624L94.893 83.6394L94.8695 83.6554L95.9937 85.3095ZM93.811 86.54L92.9875 84.7174L92.9685 84.726L92.9498 84.7349L93.811 86.54ZM91.5059 87.5469L90.8342 85.6631L90.7807 85.6822L90.7284 85.7042L91.5059 87.5469ZM89.1642 88.3524L88.5145 86.4609L89.6119 90.3016L89.1642 88.3524ZM101.334 81.6951L102.734 83.1234L102.734 83.1234L101.334 81.6951ZM108.235 69.6617L106.295 69.1741L106.295 69.1748L108.235 69.6617ZM110.991 63.4916V57.3244H106.991V63.4916H110.991ZM108.991 55.3244H100.243V59.3244H108.991V55.3244ZM100.111 59.32C101.592 59.4182 103.094 59.4724 104.522 59.5381L104.705 55.5423C103.224 55.4742 101.802 55.4234 100.375 55.3288L100.111 59.32ZM104.524 59.5382C105.873 59.5985 107.211 59.6434 108.552 59.6831L108.67 55.6849C107.338 55.6455 106.023 55.6012 104.703 55.5422L104.524 59.5382ZM106.611 57.6334L106.492 62.347L110.491 62.4483L110.61 57.7347L106.611 57.6334ZM106.492 62.3622C106.475 63.2858 106.484 63.9993 106.426 64.7389L110.413 65.0535C110.484 64.1519 110.477 63.2098 110.491 62.4332L106.492 62.3622ZM106.424 64.7555C106.371 65.5136 106.279 66.2684 106.15 67.0171L110.092 67.6976C110.244 66.8167 110.352 65.9287 110.415 65.0369L106.424 64.7555ZM106.145 67.0473C106.03 67.7837 105.872 68.5128 105.672 69.2309L109.526 70.3024C109.767 69.4358 109.957 68.5561 110.097 67.6674L106.145 67.0473ZM105.665 69.2561C105.471 69.9899 105.237 70.7127 104.964 71.4211L108.697 72.8592C109.022 72.0145 109.301 71.1526 109.533 70.2773L105.665 69.2561ZM104.937 71.4965C104.712 72.1586 104.415 72.7611 104.043 73.6148L107.709 75.215C107.993 74.5627 108.427 73.6579 108.724 72.7837L104.937 71.4965ZM104.12 73.4568C103.631 74.3534 103.412 74.8733 103.017 75.4597L106.334 77.6954C106.863 76.9096 107.331 75.9235 107.631 75.373L104.12 73.4568ZM102.938 75.5871C102.589 76.1988 102.181 76.7448 101.659 77.486L104.931 79.7873C105.365 79.1706 105.942 78.3948 106.413 77.568L102.938 75.5871ZM101.666 77.4762C101.457 77.7704 101.312 77.9173 100.956 78.3683L104.098 80.8439C104.25 80.6506 104.656 80.1732 104.924 79.7971L101.666 77.4762ZM100.942 78.3865C100.736 78.6542 100.515 78.9098 100.279 79.1522L103.149 81.9386C103.491 81.5865 103.813 81.215 104.112 80.8258L100.942 78.3865ZM100.264 79.1684C99.9002 79.5514 99.7273 79.7565 99.45 80.0338L102.278 82.8622C102.582 82.5584 102.962 82.1364 103.165 81.9225L100.264 79.1684ZM99.482 80.0025L98.5794 80.8656L101.344 83.7566L102.246 82.8935L99.482 80.0025ZM98.5474 80.8969C98.2985 81.1458 98.2141 81.1711 97.7017 81.6212L100.342 84.6264C100.456 84.5256 101.049 84.0517 101.376 83.7253L98.5474 80.8969ZM97.7574 81.574C97.3357 81.9181 97.17 82.077 96.9096 82.2583L99.1946 85.5414C99.6203 85.2451 100.067 84.8517 100.286 84.6736L97.7574 81.574ZM96.8699 82.2867L95.863 83.0246L98.2275 86.2509L99.2343 85.513L96.8699 82.2867ZM95.9685 82.9523L94.917 83.624L97.0705 86.9949L98.122 86.3232L95.9685 82.9523ZM94.8695 83.6554C94.6117 83.8306 94.3622 83.9595 93.9351 84.1995L95.8948 87.6866C96.1869 87.5224 96.6753 87.2645 97.118 86.9636L94.8695 83.6554ZM93.9351 84.1995C93.4855 84.4522 93.2616 84.5936 92.9875 84.7174L94.6344 88.3626C95.1213 88.1427 95.6252 87.8381 95.8948 87.6866L93.9351 84.1995ZM92.9498 84.7349C92.1752 85.1045 91.5142 85.4206 90.8342 85.6631L92.1776 89.4307C93.087 89.1065 93.9393 88.6948 94.6722 88.3451L92.9498 84.7349ZM90.7284 85.7042C90.0427 85.9935 89.4765 86.1305 88.5145 86.4609L89.8138 90.244C90.4182 90.0364 91.4487 89.7418 92.2834 89.3896L90.7284 85.7042ZM89.6119 90.3016C94.5639 89.1641 99.105 86.6799 102.734 83.1234L99.934 80.2667C96.8318 83.307 92.9497 85.4307 88.7164 86.4032L89.6119 90.3016ZM102.734 83.1234C106.362 79.5669 108.938 75.0766 110.174 70.1486L106.295 69.1748C105.237 73.3877 103.036 77.2264 99.9339 80.2667L102.734 83.1234ZM110.174 70.1493C110.722 67.9711 110.996 65.7332 110.991 63.4871L106.991 63.4961C106.996 65.4104 106.762 67.3177 106.295 69.1741L110.174 70.1493Z" fill="black" mask="url(#path-43-inside-5_11:2)"/>
</g>
</g>
</g>
</g>
</g>
</g>
<defs>
<linearGradient id="paint0_linear_11:2" x1="11.1104" y1="21.0369" x2="12.2369" y2="124.563" gradientUnits="userSpaceOnUse">
<stop stop-color="#264653"/>
<stop offset="0.25" stop-color="#2A9D8F"/>
<stop offset="0.520833" stop-color="#E9C46A"/>
<stop offset="0.765625" stop-color="#F4A261"/>
<stop offset="0.96875" stop-color="#E76F51"/>
</linearGradient>
<linearGradient id="paint1_linear_11:2" x1="-133.682" y1="-299.294" x2="-133.682" y2="-276.589" gradientUnits="userSpaceOnUse">
<stop stop-color="#E76F51"/>
<stop offset="1" stop-color="#264653"/>
</linearGradient>
<linearGradient id="paint2_linear_11:2" x1="-127.759" y1="-296.754" x2="-131.614" y2="-291.459" gradientUnits="userSpaceOnUse">
<stop stop-color="#E2316A"/>
<stop offset="1" stop-color="#1D2671"/>
</linearGradient>
<linearGradient id="paint3_linear_11:2" x1="-127.814" y1="-271.453" x2="-111.239" y2="-309.18" gradientUnits="userSpaceOnUse">
<stop stop-color="#FF9900"/>
<stop offset="0.541667" stop-color="#4700FC"/>
<stop offset="0.942708" stop-color="#E8760D"/>
</linearGradient>
<linearGradient id="paint4_linear_11:2" x1="-122.367" y1="-282.239" x2="-122.367" y2="-280.819" gradientUnits="userSpaceOnUse">
<stop stop-color="#E9C46A"/>
<stop offset="0.162" stop-color="#FBC000"/>
<stop offset="0.307" stop-color="#F8B500"/>
<stop offset="0.446" stop-color="#F3A300"/>
<stop offset="0.581" stop-color="#EB8900"/>
<stop offset="0.712" stop-color="#E26800"/>
<stop offset="0.842" stop-color="#D73F00"/>
<stop offset="0.967" stop-color="#CA1000"/>
<stop offset="1" stop-color="#C70300"/>
</linearGradient>
<linearGradient id="paint5_linear_11:2" x1="-133.682" y1="422.294" x2="-133.682" y2="399.589" gradientUnits="userSpaceOnUse">
<stop stop-color="#E76F51"/>
<stop offset="1" stop-color="#264653"/>
</linearGradient>
<linearGradient id="paint6_linear_11:2" x1="-127.759" y1="419.754" x2="-131.614" y2="414.459" gradientUnits="userSpaceOnUse">
<stop stop-color="#E2316A"/>
<stop offset="1" stop-color="#1D2671"/>
</linearGradient>
<linearGradient id="paint7_linear_11:2" x1="-127.814" y1="394.453" x2="-111.24" y2="432.18" gradientUnits="userSpaceOnUse">
<stop stop-color="#FF9900"/>
<stop offset="0.541667" stop-color="#4700FC"/>
<stop offset="0.942708" stop-color="#E8760D"/>
</linearGradient>
<linearGradient id="paint8_linear_11:2" x1="-122.367" y1="405.239" x2="-122.367" y2="403.819" gradientUnits="userSpaceOnUse">
<stop stop-color="#E9C46A"/>
<stop offset="0.162" stop-color="#FBC000"/>
<stop offset="0.307" stop-color="#F8B500"/>
<stop offset="0.446" stop-color="#F3A300"/>
<stop offset="0.581" stop-color="#EB8900"/>
<stop offset="0.712" stop-color="#E26800"/>
<stop offset="0.842" stop-color="#D73F00"/>
<stop offset="0.967" stop-color="#CA1000"/>
<stop offset="1" stop-color="#C70300"/>
</linearGradient>
<linearGradient id="paint9_linear_11:2" x1="1102.67" y1="1007.99" x2="1074.83" y2="1007.99" gradientUnits="userSpaceOnUse">
<stop offset="0.015625" stop-color="#214A4D"/>
<stop offset="0.161458" stop-color="#0098BA"/>
<stop offset="0.359375" stop-color="#00C9DF"/>
<stop offset="0.359475" stop-color="#00D3E7"/>
<stop offset="0.44" stop-color="#00E5F4"/>
<stop offset="0.520833" stop-color="#16454B"/>
<stop offset="0.65625" stop-color="#009BBC"/>
<stop offset="0.734375" stop-color="#0098BA"/>
<stop offset="0.9829" stop-color="#E68A00"/>
</linearGradient>
<linearGradient id="paint10_linear_11:2" x1="1101.64" y1="1016.8" x2="1101.64" y2="998.118" gradientUnits="userSpaceOnUse">
<stop stop-color="#233B55"/>
<stop offset="1" stop-color="#131D32"/>
</linearGradient>
<linearGradient id="paint11_linear_11:2" x1="1097.04" y1="1039.53" x2="1097.04" y2="1004.81" gradientUnits="userSpaceOnUse">
<stop stop-color="#49A09D"/>
<stop offset="0.149" stop-color="#4A989B"/>
<stop offset="0.375" stop-color="#4E8396"/>
<stop offset="0.65" stop-color="#54618E"/>
<stop offset="0.96" stop-color="#5D3283"/>
<stop offset="1" stop-color="#264653"/>
</linearGradient>
<linearGradient id="paint12_linear_11:2" x1="1121.2" y1="989.546" x2="1119.02" y2="1012.71" gradientUnits="userSpaceOnUse">
<stop stop-color="#233B55"/>
<stop offset="1" stop-color="#131D32"/>
</linearGradient>
<linearGradient id="paint13_linear_11:2" x1="1124.66" y1="1008.42" x2="1100.78" y2="1028.88" gradientUnits="userSpaceOnUse">
<stop offset="0.0729167" stop-color="#264653"/>
<stop offset="0.427083" stop-color="#131D32"/>
<stop offset="0.541667" stop-color="#1F324E"/>
<stop offset="0.9999" stop-color="#F3A300"/>
</linearGradient>
</defs>
</svg>
